<?xml version="1.0" encoding="utf-8"?>
<svg viewBox="-89.098 -85.397 625.1132 615.0084" xmlns="http://www.w3.org/2000/svg">
  <path fill="#EFF0FA" opacity="1.000000" stroke="none" d="M 530.651 430.107 C 531.999 430.967 534.05 431.521 534.579 432.737 C 537.472 439.381 535.81 445.503 531.246 450.768 C 528.089 454.41 524.704 457.946 520.962 460.958 C 518.128 463.24 514.716 464.998 511.304 466.331 C 500.609 470.507 489.543 473.358 478.006 473.714 C 466.217 474.077 454.707 472.447 443.304 469.184 C 429.934 465.358 416.446 461.796 402.82 459.054 C 390.411 456.557 377.631 454.168 365.232 458.958 C 356.449 462.351 348.099 466.849 339.457 470.627 C 328.289 475.51 317.315 480.387 305.144 483.213 C 288.189 487.15 271.391 484.991 254.551 485.634 C 242.897 486.078 231.47 486.878 220.862 492.229 C 211.965 496.717 203.249 501.594 194.194 505.732 C 183.789 510.486 173.187 514.844 162.503 518.936 C 155.338 521.68 147.983 524.098 140.523 525.854 C 133.964 527.397 127.166 528.25 120.429 528.635 C 108.494 529.316 96.522 529.724 84.573 529.584 C 80.251 529.533 75.883 527.78 71.698 526.336 C 70.826 526.035 69.919 523.394 70.318 522.304 C 71.624 518.739 73.693 516.063 77.772 514.438 C 86.712 510.877 95.206 506.213 104.032 502.343 C 107.758 500.71 111.968 500.208 115.772 498.717 C 120.602 496.826 125.303 494.572 129.95 492.255 C 135.608 489.434 134.434 484.837 129.392 481.632 C 123.869 478.121 117.87 475.797 111.205 474.887 C 103.442 473.827 95.851 471.503 88.088 470.434 C 76.782 468.876 65.388 467.962 54.034 466.747 C 49.603 466.273 45.19 465.59 40.75 465.254 C 36.537 464.934 32.3 464.862 28.072 464.824 C 18.66 464.738 9.248 464.732 -0.164 464.712 C -6.244 464.699 -12.33 464.533 -18.402 464.761 C -33.483 465.325 -48.57 466.737 -63.628 466.44 C -70 466.314 -76.321 462.803 -82.614 460.68 C -83.287 460.453 -83.617 459.21 -83.68 458.083 C -81.781 457.93 -80.314 458.197 -78.834 458.322 C -73.386 458.78 -67.934 459.471 -62.484 459.457 C -60.761 459.452 -57.798 457.689 -57.62 456.421 C -57.365 454.597 -58.619 451.696 -60.165 450.681 C -62.7 449.015 -65.987 448.495 -69.066 447.203 C -69.834 445.851 -70.494 444.788 -70.762 443.702 C -68.894 443.031 -67.416 442.382 -65.59 441.652 C -64.043 440.628 -62.961 439.101 -61.628 438.837 C -50.787 436.689 -39.87 435.404 -29.362 437.117 C -28.021 439.207 -26.911 440.938 -25.582 442.958 C -24.305 443.568 -23.247 443.89 -22.278 444.509 C -23.267 446.381 -24.169 447.956 -25.226 449.909 C -27.098 457.546 -25.985 459.61 -18.854 458.608 C -11.634 457.593 -4.605 455.027 2.393 452.784 C 3.733 452.354 5.68 449.499 5.398 449.081 C 4.224 447.344 2.496 445.349 0.612 444.875 C -2.191 444.17 -5.298 444.67 -8.484 444.438 C -9.891 443.408 -11.089 442.598 -12.116 441.531 C -10.826 440.408 -9.707 439.541 -8.221 438.493 C -7.944 435.46 -8.036 432.609 -8.225 429.428 C -8.257 428.651 -8.191 428.202 -7.722 427.754 C -1.531 425.819 4.259 423.898 10.033 421.927 C 10.467 421.779 10.731 421.181 11.161 420.966 C 13.34 419.875 15.468 418.207 17.761 417.92 C 22.666 417.306 24.526 413.745 25.56 410.039 C 26.391 407.06 20.999 403.519 16.815 402.642 C 12.19 401.671 7.521 400.272 3.3 398.191 C -0.77 396.184 -1.251 390.797 1.629 387.492 C 9.144 378.866 19.651 375.109 29.702 370.913 C 35.341 368.559 41.731 368.021 47.763 366.584 C 58.546 364.014 69.216 360.819 80.115 358.933 C 91.67 356.934 103.436 356.155 115.131 355.25 C 116.663 362.644 113.594 367.413 108.466 371.997 C 100.055 379.517 92.116 387.592 84.336 395.773 C 82.514 397.688 81.344 400.926 81.219 403.619 C 80.825 412.079 81.031 420.57 81.082 429.048 C 81.124 436.062 83.009 437.964 89.872 437.969 C 109.157 437.984 128.442 437.964 147.867 438.079 C 148.337 438.129 148.668 438.057 149.369 437.993 C 150.728 437.997 151.716 437.992 152.768 438.394 C 152.989 440.34 153.146 441.878 153.369 444.052 C 157.262 443.568 160.563 443.158 164.157 442.619 C 166.147 440.95 167.845 439.409 170.04 437.904 C 181.347 437.946 192.158 437.989 202.967 437.952 C 221.921 437.885 240.874 437.769 260.198 437.634 C 261.705 435.429 263.708 433.309 263.821 431.092 C 264.217 423.299 263.83 415.469 264.05 407.662 C 264.105 405.701 264.772 403.237 266.079 401.914 C 276.818 391.037 287.593 380.179 298.758 369.746 C 303.024 365.76 306.546 359.049 315.014 362.881 C 315.014 365.067 314.088 368.398 315.299 370.49 C 316.321 372.255 319.763 373.148 322.245 373.423 C 327.079 373.959 327.289 370.439 327.306 366.742 C 330.286 362.696 332.938 358.99 338.54 359.028 C 341.629 359.049 344.723 358.149 347.903 358.058 C 351.751 359.217 355.484 360.174 359.276 360.714 C 372.779 362.633 386.405 363.874 399.787 366.411 C 410.646 368.47 421.288 371.803 431.891 375.018 C 436.14 376.306 440.026 378.792 445.179 381.26 C 442.311 383.549 440.624 384.772 439.089 386.164 C 437.96 387.186 435.999 388.742 436.231 389.508 C 436.695 391.037 438.19 392.885 439.655 393.346 C 442.597 394.272 445.804 394.357 448.91 395.208 C 449.229 400.684 449.713 405.737 449.789 410.797 C 449.839 414.088 450.651 416.603 453.778 418.069 C 452.812 419.058 452.001 419.811 450.705 420.58 C 446.911 420.726 443.494 420.41 440.335 421.169 C 438.613 421.583 437.082 423.657 435.984 425.325 C 435.61 425.892 436.509 428.094 437.361 428.549 C 445.545 432.917 454.245 435.638 463.612 435.469 C 464.708 435.449 466.75 433.812 466.688 433.063 C 466.413 429.736 465.531 426.46 464.841 422.902 C 464.5 422.01 464.186 421.382 464.286 420.733 C 465.416 419.82 466.674 418.978 466.762 418.027 C 467.297 412.274 467.564 406.496 468.32 400.736 C 480.434 404.082 492.147 407.418 504.142 410.958 C 505.255 412.931 506.33 414.629 506.859 416.483 C 507.648 419.249 509.344 420.112 511.96 420.114 C 511.882 421.298 511.824 422.086 511.405 422.892 C 508.006 424.188 504.657 425.031 502.041 426.9 C 500.358 428.102 499.261 430.739 498.943 432.887 C 498.839 433.592 501.921 435.363 503.696 435.621 C 506.77 436.068 510.103 436.299 513.072 435.576 C 519.023 434.126 524.801 431.971 530.651 430.107 Z" transform="matrix(1, 0, 0, 1, -5.684341886080802e-14, -5.684341886080802e-14)"/>
  <path fill="#EFF0FA" opacity="1.000000" stroke="none" d="M 280.703 60.712 C 286.754 62.298 292.552 62.296 298.556 59.758 C 306.409 56.438 314.432 53.209 322.696 51.3 C 327.035 50.298 332.043 52.195 336.976 53.271 C 331.476 59.847 328.691 66.988 328.739 75.426 C 328.868 97.57 328.289 119.73 328.941 141.855 C 329.412 157.867 319.201 170.714 300.737 168.888 C 298.588 168.397 296.826 167.994 295.048 167.134 C 295.018 154.863 295.082 143.05 294.969 131.239 C 294.84 117.641 284.822 107.657 271.3 107.649 C 227.544 107.622 183.788 107.635 140.032 107.674 C 125.541 107.688 115.645 117.618 115.61 132.053 C 115.581 143.865 115.577 155.677 115.205 167.587 C 111.264 168.48 108.631 169.499 108.901 174.374 C 109.528 185.711 109.461 197.086 109.222 208.41 C 104.617 208.351 100.464 208.301 96.312 208.309 C 78.884 208.341 66.957 196.56 66.773 179.033 C 66.66 168.264 66.138 157.458 69.581 146.873 C 77.514 146.61 81.851 142.192 81.863 134.714 C 81.881 122.224 81.891 109.734 81.853 97.244 C 81.834 90.817 77.78 86.792 71.325 86.773 C 58.835 86.736 46.345 86.753 33.855 86.747 C 34.53 72.519 34.799 58.255 36.057 44.078 C 36.659 37.293 39.704 30.751 40.625 23.96 C 41.889 14.648 46.66 6.604 51.637 -0.358 C 57.025 -7.897 61.045 -17.031 69.895 -22.128 C 76.103 -25.705 81.109 -31.438 87.416 -34.758 C 98.33 -40.504 109.693 -43.242 122.574 -39.851 C 131.971 -37.378 139.481 -31.787 148.513 -27.81 C 148.872 -21.332 148.618 -15.346 149.022 -9.404 C 149.146 -7.576 150.656 -5.188 152.241 -4.236 C 156.895 -1.44 162.116 0.423 166.731 3.273 C 175.457 8.66 184.165 11.806 193.828 5.72 C 193.308 8.734 194.88 10.103 197.263 11.917 C 204.366 17.321 210.856 23.522 217.802 29.144 C 229.49 38.606 241.664 47.397 255.141 54.191 C 256.512 54.882 258.379 54.588 260.721 55.029 C 262.234 59.818 263.01 64.335 263.858 68.839 C 264.73 73.471 265.837 73.828 269.449 70.666 C 273.217 67.368 276.953 64.032 280.703 60.712 Z" transform="matrix(1, 0, 0, 1, -5.684341886080802e-14, -5.684341886080802e-14)"/>
  <path fill="#3A3967" opacity="1.000000" stroke="none" d="M -8.589 438.675 C -9.707 439.541 -10.826 440.408 -12.487 441.57 C -16.084 442.648 -19.137 443.43 -22.19 444.212 C -23.247 443.89 -24.305 443.568 -25.547 442.529 C -25.94 438.122 -26.151 434.432 -26.297 430.497 C -26.286 430.093 -26.34 429.934 -26.355 429.351 C -27.176 416.641 -28.597 404.359 -28.711 392.065 C -28.793 383.204 -30.766 375.448 -36.002 368.385 C -37.274 366.669 -38.093 364.608 -39.05 362.672 C -39.899 360.956 -40.651 359.192 -41.446 357.45 C -41.854 357.553 -42.262 357.657 -42.67 357.761 C -40.068 371.006 -43.621 383.186 -48.347 395.262 C -54.382 410.685 -60.09 426.237 -65.939 441.733 C -67.416 442.382 -68.894 443.031 -71.078 443.506 C -75.002 442.321 -78.218 441.311 -81.435 440.3 C -84.221 439.068 -84.534 437.351 -83.58 434.378 C -77.37 415.012 -71.561 395.518 -65.294 376.171 C -63.74 371.372 -63.675 366.887 -64.823 361.431 C -64.69 355.433 -63.668 349.954 -68.125 345.754 C -68.125 345.754 -68.373 345.32 -68.036 344.841 C -67.52 343.736 -67.18 343.11 -67.186 342.486 C -67.277 334.306 -67.396 326.125 -67.594 317.946 C -67.605 317.473 -68.354 317.017 -68.759 316.553 C -68.678 315.799 -68.596 315.045 -68.024 313.956 C -54.322 319.691 -40.826 321.019 -26.582 316.019 C -23.543 314.916 -20.872 313.854 -18.148 313.189 C -15.881 325.99 -13.938 338.452 -11.387 350.787 C -7.898 367.658 -6.537 384.595 -8.655 401.857 C -9.351 413.216 -9.661 424.47 -9.971 435.725 C -9.535 435.401 -9.099 435.076 -8.583 435.137 C -8.532 436.574 -8.56 437.624 -8.589 438.675 Z" transform="matrix(1, 0, 0, 1, -5.684341886080802e-14, -5.684341886080802e-14)"/>
  <path fill="#CDE9F0" opacity="1.000000" stroke="none" d="M 453.933 417.835 C 450.651 416.603 449.839 414.088 449.789 410.797 C 449.713 405.737 449.229 400.684 449.186 394.896 C 449.54 387.527 450.192 380.839 449.595 374.265 C 448.357 360.638 448.465 347.216 451.596 333.793 C 453.504 325.613 454.395 317.201 455.91 308.923 C 457.156 302.12 458.649 295.362 460.419 288.627 C 463.15 289.065 465.495 289.46 468.099 290.12 C 481.994 294.266 495.303 294.624 507.847 286.727 C 508.848 290.16 510.477 293.547 510.739 297.036 C 511.816 311.383 510.376 325.584 506.017 339.294 C 503.773 346.351 506.761 352.458 508.522 358.583 C 512.631 372.869 517.783 386.853 522.371 401.005 C 523.639 404.915 524.596 408.954 525.272 413.004 C 525.433 413.97 523.89 415.22 522.551 416.601 C 518.642 417.814 515.311 418.766 511.981 419.718 C 509.344 420.112 507.648 419.249 506.859 416.483 C 506.33 414.629 505.255 412.931 504.141 410.56 C 498.545 395.6 493.214 381.251 487.939 366.881 C 487.096 364.585 486.508 362.196 486.091 359.582 C 486.25 355.564 485.565 351.731 486.105 348.079 C 487.166 340.907 489.187 333.876 490.261 326.705 C 490.865 322.674 490.37 318.479 490.37 314.358 C 490.05 314.324 489.73 314.29 489.41 314.256 C 487.52 320.457 485.63 326.658 483.393 332.911 C 479.287 339.641 475.51 346.309 471.794 353.01 C 471.325 353.855 470.973 354.862 470.907 355.818 C 469.878 370.785 468.906 385.757 467.92 400.727 C 467.564 406.496 467.297 412.274 466.762 418.027 C 466.674 418.978 465.416 419.82 464.086 420.418 C 460.293 419.361 457.113 418.598 453.933 417.835 Z" transform="matrix(1, 0, 0, 1, -5.684341886080802e-14, -5.684341886080802e-14)"/>
  <path fill="#AEADE9" opacity="1.000000" stroke="none" d="M 507.872 286.312 C 495.303 294.624 481.994 294.266 467.912 289.814 C 462.641 287.725 461.312 284.079 460.79 279.414 C 459.573 268.533 463.72 258.584 465.604 248.238 C 466.808 241.621 467.666 234.942 468.68 228.29 C 468.287 228.159 467.894 228.027 467.501 227.895 C 464.244 230.868 460.988 233.841 457.347 236.746 C 454.051 236.042 451.164 235.051 448.219 234.83 C 432.027 233.612 420.569 225.699 413.404 211.158 C 409.809 203.862 405.741 196.799 401.866 189.261 C 401.206 186.812 400.566 184.733 400.328 182.657 C 403.376 181.923 406.022 181.188 408.997 180.565 C 410.185 181.371 411.042 182.064 411.89 183.135 C 411.976 187.488 414.983 188.64 418.115 190.1 C 423.292 196.557 428.179 202.853 433.484 208.775 C 434.845 210.295 437.589 211.512 439.589 211.368 C 452.244 210.457 464.371 207.336 475.845 201.662 C 481.25 203.308 485.742 202.345 489.055 197.688 C 490.714 197.691 492.388 197.837 494.03 197.673 C 502.358 196.841 504.056 197.331 507.284 205.037 C 509.491 210.304 511.286 216.102 511.564 221.747 C 512.164 233.948 512.123 246.228 511.473 258.43 C 510.983 267.623 509.139 276.744 507.872 286.312 Z" transform="matrix(1, 0, 0, 1, -5.684341886080802e-14, -5.684341886080802e-14)"/>
  <path fill="#A9CFEE" opacity="1.000000" stroke="none" d="M -26.951 316.059 C -40.826 321.019 -54.322 319.691 -67.923 313.589 C -68.919 311.789 -70.07 310.014 -70.047 308.255 C -69.843 292.184 -70.134 276.06 -68.829 260.069 C -68.022 250.179 -65.169 240.356 -62.339 230.766 C -60.329 223.953 -56.156 221.679 -49.451 222.246 C -44.113 226.072 -38.973 228.05 -33.006 225.646 C -29.672 227.043 -26.441 228.848 -22.976 229.725 C -19.485 230.609 -15.735 231.028 -12.147 230.821 C -7.748 230.568 -3.399 229.452 1.462 229.077 C 3.165 231.7 4.602 233.868 5.537 236.233 C 6.904 239.691 7.912 243.29 8.848 247.103 C 7.078 248.315 5.565 249.313 3.983 250.185 C -2.503 253.759 -9.009 257.295 -15.837 260.834 C -18.797 263.391 -23.093 265.626 -23.687 268.599 C -24.714 273.744 -24.054 279.469 -22.999 284.729 C -21.346 292.967 -21.59 300.738 -26.241 307.851 C -28.095 310.686 -28.761 313.139 -26.951 316.059 Z" transform="matrix(1, 0, 0, 1, -5.684341886080802e-14, -5.684341886080802e-14)"/>
  <path fill="#CDE9F0" opacity="1.000000" stroke="none" d="M 33.404 86.752 C 46.345 86.753 58.835 86.736 71.325 86.773 C 77.78 86.792 81.834 90.817 81.853 97.244 C 81.891 109.734 81.881 122.224 81.863 134.714 C 81.851 142.192 77.514 146.61 69.413 146.568 C 66.119 145.93 63.448 145.557 60.786 144.778 C 60.28 143.243 60.078 141.64 59.201 141.062 C 53.868 137.548 48.54 133.955 42.871 131.052 C 40.401 129.788 36.549 127.378 34.492 132.594 C 32.959 132.006 31.769 131.448 30.501 130.579 C 29.295 129.968 28.168 129.667 26.932 129.017 C 23.04 124.87 21.568 129.697 19.082 130.743 C 18.676 129.078 17.942 127.418 17.92 125.748 C 17.806 116.812 17.863 107.874 17.875 98.936 C 17.888 89.669 20.793 86.752 29.973 86.757 C 30.967 86.757 31.96 86.757 33.404 86.752 M 58.891 132.497 C 59.378 136.247 62.225 136.969 65.099 136.595 C 68.083 136.207 70.022 134.399 69.966 130.844 C 69.824 121.718 69.795 112.585 69.976 103.46 C 70.05 99.738 68.996 97.145 65.064 96.826 C 61.021 96.498 58.864 98.602 58.814 103.674 C 58.841 113.028 58.868 122.381 58.891 132.497 Z" transform="matrix(1, 0, 0, 1, -5.684341886080802e-14, -5.684341886080802e-14)"/>
  <path fill="#D4E8EB" opacity="1.000000" stroke="none" d="M 194.042 5.447 C 184.165 11.806 175.457 8.66 166.731 3.273 C 162.116 0.423 156.895 -1.44 152.241 -4.236 C 150.656 -5.188 149.146 -7.576 149.022 -9.404 C 148.618 -15.346 148.872 -21.332 148.868 -27.769 C 148.681 -35.028 150.502 -40.116 157.768 -42.884 C 165.457 -45.812 172.405 -50.771 180.17 -53.372 C 183.37 -54.443 188.074 -52.167 191.709 -50.548 C 198.621 -47.468 205.16 -43.555 212.05 -40.419 C 215.016 -39.069 215.913 -37.279 215.875 -34.296 C 215.775 -26.321 215.546 -18.328 215.96 -10.373 C 216.187 -6.005 214.218 -4.168 210.666 -2.627 C 205.113 -0.218 199.718 2.555 194.042 5.447 M 208.387 -32.231 C 201.75 -28.82 195.113 -25.409 188.017 -21.761 C 195.752 -18.07 202.96 -14.63 210.251 -11.151 C 210.909 -12.119 211.571 -12.641 211.583 -13.179 C 211.712 -18.891 211.849 -24.61 211.667 -30.316 C 211.641 -31.126 209.924 -31.882 208.387 -32.231 M 175.491 -46.064 C 169.702 -43.139 163.913 -40.214 157.195 -36.819 C 165.373 -32.855 172.215 -29.538 179.68 -25.919 C 180.1 -32.555 180.548 -38.297 180.798 -44.047 C 180.969 -47.969 179.437 -49.042 175.491 -46.064 M 193.337 -14.254 C 190.852 -15.328 188.367 -16.402 185.218 -17.762 C 185.218 -10.446 185.218 -4.106 185.218 3.695 C 193.219 0.046 200.46 -3.258 208.322 -6.844 C 202.83 -9.627 198.451 -11.845 193.337 -14.254 M 161.98 -4.758 C 167.892 -2.079 173.803 0.599 180.807 3.771 C 180.807 -3.513 180.953 -9.295 180.624 -15.051 C 180.582 -15.772 177.577 -17.271 176.721 -16.846 C 170.792 -13.901 165.068 -10.542 158.992 -7.157 C 159.93 -6.4 160.675 -5.799 161.98 -4.758 M 159.708 -13.766 C 161.43 -14.599 163.14 -15.458 164.877 -16.258 C 168.572 -17.961 172.28 -19.635 177.221 -21.883 C 168.484 -26.136 161.495 -29.537 154.332 -33.024 C 154.332 -25.623 154.332 -19.106 154.332 -11.914 C 156.319 -12.522 157.674 -12.936 159.708 -13.766 M 184.879 -28.391 C 186.043 -28.02 187.476 -27.02 188.325 -27.384 C 193.141 -29.445 197.847 -31.774 202.523 -34.144 C 204.028 -34.907 205.33 -36.072 207.303 -37.459 C 199.5 -40.999 192.57 -44.144 184.862 -47.642 C 184.862 -40.81 184.862 -35.035 184.879 -28.391 Z" transform="matrix(1, 0, 0, 1, -5.684341886080802e-14, -5.684341886080802e-14)"/>
  <path fill="#EFF0FA" opacity="1.000000" stroke="none" d="M 246.889 8.785 C 236.629 5.515 232.904 -11.917 238.039 -20.885 C 245.791 -34.427 256.229 -38.073 270.205 -31.292 C 278.59 -27.224 282.987 -15.486 281.195 -6.245 C 278.467 7.822 264.474 13.716 252.496 11.608 C 250.642 11.282 248.981 9.864 246.889 8.785 Z" transform="matrix(1, 0, 0, 1, -5.684341886080802e-14, -5.684341886080802e-14)"/>
  <path fill="#AEADE5" opacity="1.000000" stroke="none" d="M 30.579 130.89 C 31.769 131.448 32.959 132.006 34.587 132.848 C 35.291 133.599 35.556 134.064 35.747 134.883 C 34.56 138.224 31.348 140.574 31.877 144.061 C 32.359 144.261 32.841 144.46 33.323 144.659 C 35.214 141.682 37.104 138.706 39.359 135.743 C 46.568 139.389 46.862 140.013 44.501 146.698 C 43.356 148.45 42.491 150.004 41.394 151.808 C 36.793 158.985 32.425 165.912 27.728 172.707 C 24.624 170.493 22.528 170.752 20.916 174.109 C 20.248 175.501 18.93 176.581 17.908 177.803 C 11.193 173.831 4.49 169.84 -2.241 165.896 C -5.659 163.894 -7.174 161.605 -4.237 157.921 C -3.015 156.389 -2.185 154.486 -1.444 152.644 C 0.12 148.76 2.382 146.239 7.061 146.464 C 10.33 146.622 12.45 144.622 13.82 141.624 C 15.393 138.181 17.254 134.87 19.036 131.122 C 21.568 129.697 23.04 124.87 26.948 129.346 C 25.608 132.936 24.144 135.849 22.679 138.761 C 23.263 139.099 23.846 139.438 24.429 139.776 C 26.479 136.814 28.529 133.852 30.579 130.89 Z" transform="matrix(1, 0, 0, 1, -5.684341886080802e-14, -5.684341886080802e-14)"/>
  <path fill="#3C3A5F" opacity="1.000000" stroke="none" d="M 301.124 168.977 C 319.201 170.714 329.412 157.867 328.941 141.855 C 328.289 119.73 328.868 97.57 328.739 75.426 C 328.691 66.988 331.476 59.847 337.398 53.469 C 347.523 44.643 358.667 41.992 370.749 47.589 C 382.998 53.263 388.44 63.448 388.106 76.875 C 387.962 82.678 388.077 88.486 388.076 94.292 C 388.075 97.776 388.078 101.26 388.039 105.561 C 387.86 107.086 387.721 107.793 387.577 108.456 C 387.571 108.412 387.482 108.407 387.186 108.416 C 385.691 107.86 384.491 107.295 383.369 106.528 C 383.446 106.325 383.281 105.922 383.432 105.52 C 383.595 94.679 383.608 84.24 383.725 73.565 C 383.711 73.017 383.593 72.705 383.42 72.003 C 380.066 52.917 361.762 43.791 345.546 52.982 C 336.82 58.752 333.147 66.762 333.197 76.829 C 333.306 98.802 333.234 120.775 333.236 142.748 C 333.238 163.072 321.282 174.461 300.903 173.152 C 300.967 171.505 301.046 170.241 301.124 168.977 Z" transform="matrix(1, 0, 0, 1, -5.684341886080802e-14, -5.684341886080802e-14)"/>
  <path fill="#3A3967" opacity="1.000000" stroke="none" d="M -47.99 220.663 C -53.788 218.518 -59.045 216.063 -58.571 208.337 C -58.447 206.312 -59.559 204.155 -60.327 202.143 C -63.131 194.79 -60.961 188.489 -56.379 182.662 C -55.975 182.149 -55.49 181.357 -54.99 181.315 C -46.335 180.576 -37.633 176.767 -29.035 180.445 C -24.852 182.235 -24.346 186.52 -25.993 191.338 C -28.305 193.556 -30.418 195.048 -32.115 196.918 C -33.624 198.581 -34.672 200.663 -36.123 202.734 C -36.447 203.034 -36.571 203.159 -36.996 203.033 C -40.276 202.493 -40.737 204.086 -39.916 206.443 C -39.481 207.691 -38.682 208.809 -38.22 210.049 C -35.657 216.933 -37.752 220.237 -45.013 220.787 C -45.997 220.862 -46.997 220.71 -47.99 220.663 Z" transform="matrix(1, 0, 0, 1, -5.684341886080802e-14, -5.684341886080802e-14)"/>
  <path fill="#E8B8A9" opacity="1.000000" stroke="none" d="M 17.875 178.215 C 18.93 176.581 20.248 175.501 20.916 174.109 C 22.528 170.752 24.624 170.493 27.727 173.079 C 30.332 177.409 30.797 181.089 28.271 185.19 C 27.139 187.026 27.095 189.626 26.868 191.91 C 25.772 202.928 25.176 214.013 23.597 224.958 C 22.743 230.872 21.926 237.295 16.488 241.431 C 14.055 243.281 11.547 245.033 9.073 246.83 C 7.912 243.29 6.904 239.691 5.537 236.233 C 4.602 233.868 3.165 231.7 1.894 229.08 C 4.409 223.242 7.31 217.895 9.479 212.265 C 12.694 203.919 15.612 195.439 18.17 186.87 C 18.914 184.377 17.997 181.389 17.875 178.215 Z" transform="matrix(1, 0, 0, 1, -5.684341886080802e-14, -5.684341886080802e-14)"/>
  <path fill="#CBDBDC" opacity="1.000000" stroke="none" d="M 280.878 60.419 C 276.953 64.032 273.217 67.368 269.449 70.666 C 265.837 73.828 264.73 73.471 263.858 68.839 C 263.01 64.335 262.234 59.818 261.136 55.029 C 259.002 45.343 257.149 35.936 255.325 26.523 C 255.143 25.583 255.135 24.609 255.062 23.822 C 261.99 23.822 268.713 23.583 275.413 23.886 C 282.848 24.222 290.273 24.947 297.671 25.783 C 298.797 25.911 300.79 27.834 300.624 28.46 C 299.028 34.476 297.839 40.816 294.931 46.197 C 292.775 50.186 288.223 52.869 284.781 56.178 C 283.478 57.43 282.292 58.806 280.878 60.419 M 283.559 40.013 C 281.177 38.523 278.904 36.807 276.39 35.591 C 271.478 33.217 266.43 31.122 261.439 28.911 C 261.111 29.265 260.784 29.618 260.456 29.972 C 263.663 37.544 266.87 45.117 270.076 52.69 C 270.761 52.895 271.445 53.1 272.129 53.304 C 275.842 49.085 279.554 44.865 283.559 40.013 M 281.194 47.614 C 278.563 50.114 275.656 52.392 273.4 55.194 C 271.928 57.024 271.401 59.616 270.45 61.867 C 271.201 62.309 271.953 62.751 272.704 63.194 C 279.124 56.208 285.544 49.222 291.964 42.235 C 289.79 41.892 287.594 42.376 285.74 43.451 C 284.206 44.341 283.077 45.929 281.194 47.614 M 270.349 29.005 C 273.376 30.349 276.445 31.605 279.422 33.051 C 287.934 37.187 288.474 37.063 294.009 28.822 C 286.143 28.462 278.386 28.098 270.627 27.777 C 270.101 27.755 269.561 28.061 269.027 28.215 C 269.252 28.406 269.477 28.598 270.349 29.005 M 263.921 52.422 C 264.622 54.559 265.324 56.696 266.026 58.833 C 266.609 58.578 267.191 58.323 267.774 58.068 C 266.804 55.203 265.835 52.339 264.865 49.474 C 264.561 49.561 264.257 49.648 263.954 49.735 C 263.921 50.385 263.889 51.035 263.921 52.422 M 263.09 46.945 C 263.265 46.885 263.439 46.825 263.614 46.765 C 263.439 46.708 263.263 46.65 263.09 46.945 M 266.342 62.331 C 266.342 62.331 266.276 62.22 266.342 62.331 Z" transform="matrix(1, 0, 0, 1, -5.684341886080802e-14, -5.684341886080802e-14)"/>
  <path fill="#948FA8" opacity="1.000000" stroke="none" d="M 476.492 155.88 C 478.748 156.814 480.989 158.492 483.261 158.535 C 488.762 158.639 490.079 162.101 491.021 166.414 C 491.877 170.331 493.346 174.149 493.833 178.098 C 494.122 180.446 493.37 183.096 492.471 185.366 C 491.585 187.604 489.924 189.536 487.904 191.772 C 480.574 191.637 480.32 191.316 480.726 184.792 C 480.805 183.515 480.879 181.894 480.201 181.011 C 479.558 180.173 477.925 180.094 476.727 179.681 C 474.707 178.872 472.91 177.062 470.775 175.846 C 467.974 174.25 464.907 173.122 461.782 171.461 C 458.836 165.281 460.16 161.524 465.87 158.879 C 467.915 157.932 469.905 156.87 472.305 155.841 C 473.958 155.84 475.225 155.86 476.492 155.88 Z" transform="matrix(1, 0, 0, 1, -5.684341886080802e-14, -5.684341886080802e-14)"/>
  <path fill="#EFF0FA" opacity="1.000000" stroke="none" d="M 339.779 -14.788 C 336.266 -6.724 330.981 -1.657 321.941 -2.274 C 315.874 -2.689 310.966 -6.111 307.358 -10.36 C 303.34 -15.092 307.93 -24.852 314.1 -25.174 C 320.719 -25.521 327.457 -25.363 334.016 -24.483 C 338.778 -23.845 340.716 -20.07 339.779 -14.788 Z" transform="matrix(1, 0, 0, 1, -5.684341886080802e-14, -5.684341886080802e-14)"/>
  <path fill="#D4E8EB" opacity="1.000000" stroke="none" d="M 275.687 -48.941 C 267.333 -54.99 266.095 -63.095 268.753 -71.785 C 270.951 -78.97 275.986 -84.024 283.823 -85.15 C 292.874 -86.45 300.183 -82.512 304.697 -75.825 C 310.604 -67.074 308.972 -53.158 296.618 -47.127 C 290.211 -44 282.457 -43.218 275.687 -48.941 M 290.879 -63.386 C 296.17 -65.563 297.467 -70.446 298.756 -75.253 C 298.964 -76.024 298.528 -77.549 297.938 -77.857 C 294.904 -79.434 291.793 -80.946 288.549 -81.978 C 287.646 -82.265 285.396 -81.055 285.149 -80.152 C 284.37 -77.311 283.432 -74.091 284.085 -71.387 C 284.862 -68.171 284.382 -63.141 290.879 -63.386 M 277.841 -58.265 C 276.027 -58.747 274.212 -59.23 272.343 -59.727 C 272.488 -56.946 277.807 -50.076 280.236 -49.337 C 288.558 -46.804 295.56 -48.424 299.639 -54.404 C 292.443 -55.73 285.577 -56.996 277.841 -58.265 M 280.856 -79.54 C 278.032 -77.707 274.271 -76.457 272.662 -73.869 C 271.22 -71.55 270.914 -66.981 272.298 -64.785 C 274.819 -60.783 279.531 -60.445 282.931 -61.352 C 282.201 -67.528 281.536 -73.153 280.856 -79.54 M 292.794 -59.335 C 294.787 -58.591 296.737 -57.47 298.788 -57.237 C 300.144 -57.084 302.571 -57.863 302.924 -58.816 C 304.617 -63.383 305.89 -68.154 302.975 -72.937 C 299.331 -68.453 295.825 -64.14 292.794 -59.335 Z" transform="matrix(1, 0, 0, 1, -5.684341886080802e-14, -5.684341886080802e-14)"/>
  <path fill="#E8B8A9" opacity="1.000000" stroke="none" d="M 461.954 171.793 C 464.907 173.122 467.974 174.25 470.775 175.846 C 472.91 177.062 474.707 178.872 476.727 179.681 C 477.925 180.094 479.558 180.173 480.201 181.011 C 480.879 181.894 480.805 183.515 480.726 184.792 C 480.32 191.316 480.574 191.637 487.639 191.99 C 488.367 193.704 488.662 195.37 489.006 197.362 C 485.742 202.345 481.25 203.308 475.844 201.257 C 475.611 199.107 475.52 197.562 475.408 195.656 C 469.914 196.486 465.726 195.603 463.727 190.34 C 463.568 189.922 462.601 189.812 461.989 189.128 C 461.963 183.062 461.959 177.428 461.954 171.793 Z" transform="matrix(1, 0, 0, 1, -5.684341886080802e-14, -5.684341886080802e-14)"/>
  <path fill="#E8B8A9" opacity="1.000000" stroke="none" d="M -48.097 220.93 C -46.997 220.71 -45.997 220.862 -45.013 220.787 C -37.752 220.237 -35.657 216.933 -38.22 210.049 C -38.682 208.809 -39.481 207.691 -39.916 206.443 C -40.737 204.086 -40.276 202.493 -36.887 203.285 C -36.117 203.926 -35.756 204.063 -35.396 204.2 C -35.572 203.653 -35.748 203.107 -35.924 202.56 C -34.672 200.663 -33.624 198.581 -32.115 196.918 C -30.418 195.048 -28.305 193.556 -26.101 191.757 C -24.712 193.303 -22.969 194.867 -22.605 196.705 C -21.813 200.705 -21.712 204.842 -21.351 208.926 C -20.926 213.741 -23.717 216.528 -27.867 217.449 C -32.252 218.423 -33.545 220.836 -33.06 225.247 C -38.973 228.05 -44.113 226.072 -49.022 222.288 C -48.779 221.694 -48.491 221.445 -48.097 220.93 Z" transform="matrix(1, 0, 0, 1, -5.684341886080802e-14, -5.684341886080802e-14)"/>
  <path fill="#A9A9E4" opacity="1.000000" stroke="none" d="M 476.591 155.41 C 475.225 155.86 473.958 155.84 472.281 155.361 C 471.867 143.41 471.861 131.918 471.856 120.427 C 471.852 112.204 469.456 109.774 461.151 109.766 C 438.501 109.741 415.85 109.735 393.201 109.794 C 391.42 109.799 389.64 110.364 387.842 110.288 C 387.71 109.406 387.596 108.907 387.482 108.407 C 387.482 108.407 387.571 108.412 387.893 108.449 C 388.784 108.227 389.353 107.967 390.387 107.714 C 415.833 107.715 440.815 107.71 466.192 107.719 C 468.016 107.392 469.446 107.051 470.875 106.71 C 475.94 107.298 476.724 110.977 476.733 115.044 C 476.763 128.342 476.71 141.641 476.591 155.41 Z" transform="matrix(1, 0, 0, 1, -5.684341886080802e-14, -5.684341886080802e-14)"/>
  <path fill="#3C3A5F" opacity="1.000000" stroke="none" d="M 530.576 429.783 C 524.801 431.971 519.023 434.126 513.072 435.576 C 510.103 436.299 506.77 436.068 503.696 435.621 C 501.921 435.363 498.839 433.592 498.943 432.887 C 499.261 430.739 500.358 428.102 502.041 426.9 C 504.657 425.031 508.006 424.188 511.418 423.304 C 513.492 427.666 516.689 425.858 519.21 425.303 C 521.891 424.712 525.317 424.275 524.861 420.04 C 526.741 423.179 528.621 426.318 530.576 429.783 Z" transform="matrix(1, 0, 0, 1, -5.684341886080802e-14, -5.684341886080802e-14)"/>
  <path fill="#AFAEE2" opacity="1.000000" stroke="none" d="M -68.957 447.492 C -65.987 448.495 -62.7 449.015 -60.165 450.681 C -58.619 451.696 -57.365 454.597 -57.62 456.421 C -57.798 457.689 -60.761 459.452 -62.484 459.457 C -67.934 459.471 -73.386 458.78 -78.834 458.322 C -80.314 458.197 -81.781 457.93 -83.68 457.701 C -90.478 453.297 -90.678 451.962 -85.405 445.788 C -78.839 450.4 -74.004 450.867 -68.957 447.492 Z" transform="matrix(1, 0, 0, 1, -5.684341886080802e-14, -5.684341886080802e-14)"/>
  <path fill="#EFF0FA" opacity="1.000000" stroke="none" d="M 237.648 -74.712 C 241.508 -75.234 245.17 -76.263 248.537 -75.656 C 252.837 -74.88 253.52 -67.024 249.714 -63.694 C 247.359 -61.633 244.778 -59.783 242.116 -58.133 C 238.358 -55.805 235.678 -57.396 233.737 -61.265 C 230.822 -67.076 233.925 -70.692 237.648 -74.712 Z" transform="matrix(1, 0, 0, 1, -5.684341886080802e-14, -5.684341886080802e-14)"/>
  <path fill="#E8B8A9" opacity="1.000000" stroke="none" d="M -69.066 447.203 C -74.004 450.867 -78.839 450.4 -85.09 445.603 C -84.097 443.832 -82.917 442.412 -81.586 440.646 C -78.218 441.311 -75.002 442.321 -71.469 443.528 C -70.494 444.788 -69.834 445.851 -69.066 447.203 Z" transform="matrix(1, 0, 0, 1, -5.684341886080802e-14, -5.684341886080802e-14)"/>
  <path fill="#E8B8A9" opacity="1.000000" stroke="none" d="M 524.744 419.786 C 525.317 424.275 521.891 424.712 519.21 425.303 C 516.689 425.858 513.492 427.666 511.78 423.286 C 511.824 422.086 511.882 421.298 511.96 420.114 C 515.311 418.766 518.642 417.814 522.348 416.886 C 523.359 417.784 523.993 418.658 524.744 419.786 Z" transform="matrix(1, 0, 0, 1, -5.684341886080802e-14, -5.684341886080802e-14)"/>
  <path fill="#8989B8" opacity="1.000000" stroke="none" d="M 465.797 107.705 C 440.815 107.71 415.833 107.715 390.372 107.501 C 389.892 107.282 389.88 106.853 389.88 106.853 C 414.89 106.801 439.899 106.748 465.377 106.961 C 465.845 107.227 465.797 107.705 465.797 107.705 Z" transform="matrix(1, 0, 0, 1, -5.684341886080802e-14, -5.684341886080802e-14)"/>
  <path fill="#3C3A5F" opacity="1.000000" stroke="none" d="M -68.868 316.904 C -68.354 317.017 -67.605 317.473 -67.594 317.946 C -67.396 326.125 -67.277 334.306 -67.186 342.486 C -67.18 343.11 -67.52 343.736 -67.999 344.594 C -68.525 335.636 -68.751 326.446 -68.868 316.904 Z" transform="matrix(1, 0, 0, 1, -5.684341886080802e-14, -5.684341886080802e-14)"/>
  <path fill="#3C3A5F" opacity="1.000000" stroke="none" d="M -68.154 346.186 C -63.668 349.954 -64.69 355.433 -64.798 360.989 C -66.03 356.416 -67.106 351.517 -68.154 346.186 Z" transform="matrix(1, 0, 0, 1, -5.684341886080802e-14, -5.684341886080802e-14)"/>
  <path fill="#AFAEE2" opacity="1.000000" stroke="none" d="M 466.192 107.719 C 465.797 107.705 465.845 107.227 465.844 106.987 C 467.344 106.592 468.845 106.438 470.61 106.497 C 469.446 107.051 468.016 107.392 466.192 107.719 Z" transform="matrix(1, 0, 0, 1, -5.684341886080802e-14, -5.684341886080802e-14)"/>
  <path fill="#AFAEE2" opacity="1.000000" stroke="none" d="M 389.714 106.64 C 389.88 106.853 389.892 107.282 389.907 107.495 C 389.353 107.967 388.784 108.227 387.898 108.493 C 387.721 107.793 387.86 107.086 388.072 106.023 C 388.613 105.92 389.081 106.174 389.714 106.64 Z" transform="matrix(1, 0, 0, 1, -5.684341886080802e-14, -5.684341886080802e-14)"/>
  <path fill="#8989B8" opacity="1.000000" stroke="none" d="M 326.99 366.87 C 327.289 370.439 327.079 373.959 322.245 373.423 C 319.763 373.148 316.321 372.255 315.299 370.49 C 314.088 368.398 315.014 365.067 315.014 362.881 C 306.546 359.049 303.024 365.76 298.758 369.746 C 287.593 380.179 276.818 391.037 266.079 401.914 C 264.772 403.237 264.105 405.701 264.05 407.662 C 263.83 415.469 264.217 423.299 263.821 431.092 C 263.708 433.309 261.705 435.429 259.896 437.353 C 257.415 436.992 255.606 436.77 253.797 436.766 C 226.056 436.705 198.316 436.672 170.774 436.357 C 174.592 432.652 178.211 429.223 182.103 425.87 C 182.544 426.028 182.714 426.11 183.017 426.542 C 183.718 427.17 184.285 427.69 184.852 427.691 C 206.224 427.74 227.597 427.767 248.968 427.667 C 249.94 427.663 250.905 426.454 251.876 425.335 C 251.886 416.142 251.892 407.421 252.099 398.442 C 261.162 389.51 269.957 380.764 278.93 372.204 C 281.613 369.644 283.191 367.119 282.968 363.162 C 282.586 356.361 282.826 349.525 282.836 342.27 C 282.016 337.713 281.164 333.59 280.227 329.058 C 280.411 328.992 281.655 328.553 282.591 328.222 C 282.591 320.182 282.591 312.604 282.694 304.542 C 282.84 296.996 282.883 289.933 282.964 282.818 C 283.001 282.766 283.116 282.824 283.483 282.683 C 284.185 281.672 284.809 280.802 284.812 279.93 C 284.87 261.904 284.885 243.878 284.785 225.852 C 284.779 224.82 283.722 223.794 283.08 222.37 C 282.987 220.905 282.968 219.834 283.347 218.829 C 287.54 218.861 291.334 218.827 295.092 219.257 C 295.072 232.026 295.089 244.333 295.037 256.999 C 295.025 257.843 295.081 258.326 295.094 259.169 C 295.076 260.251 295.1 260.974 295.042 262.164 C 294.94 270.793 294.666 278.963 294.977 287.112 C 295.259 294.487 292.733 302.338 298.601 308.972 C 299.822 310.352 299.571 313.089 299.866 315.219 C 300.276 318.175 300.124 321.286 301.008 324.08 C 302.196 327.833 304.142 331.346 305.762 334.963 C 306.42 334.674 307.078 334.385 307.736 334.096 C 306.234 328.917 304.695 323.749 303.309 318.539 C 303.203 318.142 304.188 317.456 304.768 317.246 C 307.655 323.912 310.438 330.236 313.385 336.931 C 314.842 335.94 316.882 334.552 319.256 333.119 C 320.033 333.004 320.477 332.933 321.282 332.877 C 323.744 331.736 325.34 331.678 325.874 334.59 C 326.437 337.652 327.144 340.688 327.515 344.048 C 327.158 351.865 327.074 359.367 326.99 366.87 M 300.528 333.589 C 300.902 333.295 301.648 332.856 301.598 332.728 C 299.819 328.171 297.966 323.643 295.899 318.558 C 292.676 325.542 296.728 329.509 299.132 333.783 C 297.81 333.627 296.487 333.471 295.165 333.315 C 294.95 333.857 294.735 334.4 294.52 334.942 C 298.274 337.001 302.028 339.06 305.783 341.119 C 306.123 340.572 306.462 340.024 306.802 339.477 C 304.484 337.566 302.165 335.656 300.528 333.589 M 297.23 342.038 C 296.622 342.167 295.485 342.283 295.482 342.426 C 295.386 346.486 295.405 350.548 295.405 354.61 C 295.925 354.836 296.444 355.062 296.964 355.287 C 300.551 351.488 304.138 347.689 308.382 343.194 C 304.174 342.845 301.108 342.59 297.23 342.038 Z" transform="matrix(1, 0, 0, 1, -5.684341886080802e-14, -5.684341886080802e-14)"/>
  <path fill="#8989B7" opacity="1.000000" stroke="none" d="M 115.131 355.25 C 115.273 354.04 115.58 353.237 115.58 352.434 C 115.565 319.197 115.523 285.959 115.492 251.821 C 115.514 240.523 115.527 230.126 116.019 219.718 C 120.256 219.719 124.013 219.731 127.768 220 C 127.727 220.425 127.69 220.593 127.275 220.871 C 126.551 222.18 125.904 223.378 125.902 224.577 C 125.849 263.605 125.841 302.633 125.931 341.661 C 125.934 343.023 127.008 344.383 127.665 346.147 C 127.746 348.343 127.746 350.136 127.746 352.692 C 129.718 350.949 131.203 349.734 132.577 348.403 C 136.96 344.156 141.105 339.632 145.764 335.716 C 147.451 334.298 150.886 333.152 152.523 333.946 C 154.508 334.909 155.512 338.014 156.769 340.286 C 157.126 340.932 156.884 341.909 156.713 343 C 153.023 346.296 149.407 349.189 146.075 352.38 C 133.888 364.051 121.719 375.742 109.719 387.604 C 106.405 390.88 103.701 394.774 100.354 398.455 C 97.945 400.32 94.333 401.956 94.136 403.933 C 93.422 411.092 93.854 418.365 93.854 425.975 C 113.984 425.975 133.418 425.975 152.867 426.413 C 152.822 430.563 152.763 434.275 152.704 437.987 C 151.716 437.992 150.728 437.997 149.052 437.933 C 148.152 437.895 147.94 437.927 147.727 437.958 C 128.442 437.964 109.157 437.984 89.872 437.969 C 83.009 437.964 81.124 436.062 81.082 429.048 C 81.031 420.57 80.825 412.079 81.219 403.619 C 81.344 400.926 82.514 397.688 84.336 395.773 C 92.116 387.592 100.055 379.517 108.466 371.997 C 113.594 367.413 116.663 362.644 115.131 355.25 Z" transform="matrix(1, 0, 0, 1, -5.684341886080802e-14, -5.684341886080802e-14)"/>
  <path fill="#AFAEE2" opacity="1.000000" stroke="none" d="M 327.306 366.742 C 327.074 359.367 327.158 351.865 327.803 344.239 C 329.176 344.975 329.987 345.833 330.798 346.692 C 331.252 346.455 331.706 346.217 332.159 345.98 C 331.422 343.762 330.932 341.421 329.903 339.347 C 326.449 332.384 324.345 325.199 324.836 317.31 C 325.264 310.415 329.041 304.367 334.883 302.941 C 334.485 314.97 335.306 326.744 339.015 338.101 C 338.753 331.848 337.645 325.714 336.91 319.537 C 335.851 310.628 337.396 302.058 340.949 293.839 C 340.949 293.839 341.353 293.717 341.941 293.707 C 343.949 295.723 345.37 297.749 346.751 300.144 C 346.379 302.22 346.046 303.927 345.514 305.847 C 345.25 306.619 345.185 307.178 345.085 308.062 C 345.057 308.819 345.065 309.252 345.006 310.139 C 344.535 317.105 344.131 323.618 343.727 330.13 C 344.193 330.155 344.658 330.179 345.124 330.204 C 348.074 323.632 348.252 316.7 347.628 309.232 C 347.879 304.679 347.347 300.28 352.079 298.071 C 353.177 300.114 354.928 301.957 354.756 303.599 C 354.254 308.392 352.985 313.105 352.017 317.85 C 350.955 320.886 349.894 323.921 348.674 327.397 C 348.644 327.826 348.772 327.814 348.901 327.803 C 352.152 324.68 355.278 321.408 358.723 318.517 C 359.896 317.532 361.871 317.503 363.48 317.037 C 363.583 318.626 363.685 320.215 363.523 322.296 C 363.305 323.024 363.351 323.259 363.397 323.494 C 363.622 323.324 363.847 323.154 364.073 322.984 C 366.116 322.546 368.159 322.109 370.202 321.672 C 370.519 321.994 370.836 322.316 371.152 322.637 C 369.032 325.764 366.911 328.891 364.508 332.362 C 363.766 333.053 363.306 333.4 362.499 333.774 C 361.049 334.781 359.946 335.76 358.446 336.698 C 352.848 338.577 347.647 340.496 342.445 342.416 C 342.726 343.074 343.007 343.731 343.288 344.389 C 348.482 341.846 353.675 339.304 359.167 336.643 C 360.6 335.607 361.734 334.69 363.168 333.773 C 363.935 333.438 364.401 333.102 364.867 332.766 C 365.914 332.49 366.962 332.215 368.136 331.905 C 367.194 340.943 362.639 345.602 350.766 350.021 C 353.519 353.714 349.411 354.88 347.987 357.377 C 344.723 358.149 341.629 359.049 338.54 359.028 C 332.938 358.99 330.286 362.696 327.306 366.742 M 358.999 325.648 C 353.822 327.988 348.828 330.551 345.964 335.69 C 346.26 336.058 346.555 336.425 346.851 336.793 C 351.224 333.154 355.598 329.514 360.508 325.798 C 360.727 325.521 360.947 325.244 361.166 324.967 C 360.682 325.172 360.199 325.377 358.999 325.648 M 345.723 350.683 C 343.609 351.066 341.495 351.449 339.382 351.831 C 339.615 352.503 339.849 353.175 340.083 353.847 C 342.193 352.8 344.303 351.753 345.723 350.683 Z" transform="matrix(1, 0, 0, 1, -5.684341886080802e-14, -5.684341886080802e-14)"/>
  <path fill="#ACCDEC" opacity="1.000000" stroke="none" d="M 181.83 425.794 C 178.211 429.223 174.592 432.652 170.55 436.511 C 169.933 437.25 169.738 437.559 169.543 437.869 C 167.845 439.409 166.147 440.95 164.156 442.151 C 163.86 436.491 163.854 431.171 163.856 425.851 C 163.858 417.036 163.86 417.036 156.006 413.461 C 157.605 411.63 159.145 410.166 160.529 408.568 C 163.352 405.309 166.091 401.978 169.13 398.413 C 173.145 398.35 176.892 398.677 180.643 398.726 C 189.42 398.838 198.197 398.817 206.894 399.179 C 205.308 401.254 203.88 403.075 202.283 404.733 C 195.493 411.78 188.652 418.778 181.83 425.794 Z" transform="matrix(1, 0, 0, 1, -5.684341886080802e-14, -5.684341886080802e-14)"/>
  <path fill="#3C3A5F" opacity="1.000000" stroke="none" d="M 464.869 423.166 C 465.531 426.46 466.413 429.736 466.688 433.063 C 466.75 433.812 464.708 435.449 463.612 435.469 C 454.245 435.638 445.545 432.917 437.361 428.549 C 436.509 428.094 435.61 425.892 435.984 425.325 C 437.082 423.657 438.613 421.583 440.335 421.169 C 443.494 420.41 446.911 420.726 450.813 420.963 C 450.676 425.152 453.83 425.353 456.003 425.605 C 459.126 425.968 463.048 427.974 464.869 423.166 Z" transform="matrix(1, 0, 0, 1, -5.684341886080802e-14, -5.684341886080802e-14)"/>
  <path fill="#AFAEE2" opacity="1.000000" stroke="none" d="M 155.875 413.768 C 163.86 417.036 163.858 417.036 163.856 425.851 C 163.854 431.171 163.86 436.491 163.864 442.28 C 160.563 443.158 157.262 443.568 153.369 444.052 C 153.146 441.878 152.989 440.34 152.768 438.394 C 152.763 434.275 152.822 430.563 152.902 425.947 C 153.604 421.205 150.973 416.5 155.875 413.768 Z" transform="matrix(1, 0, 0, 1, -5.684341886080802e-14, -5.684341886080802e-14)"/>
  <path fill="#AFAEE2" opacity="1.000000" stroke="none" d="M -8.275 444.657 C -5.298 444.67 -2.191 444.17 0.612 444.875 C 2.496 445.349 4.224 447.344 5.398 449.081 C 5.68 449.499 3.733 452.354 2.393 452.784 C -4.605 455.027 -11.634 457.593 -18.854 458.608 C -25.985 459.61 -27.098 457.546 -24.809 449.953 C -22.783 449.836 -21.314 449.985 -19.875 450.281 C -14.553 451.376 -10.756 449.555 -8.275 444.657 Z" transform="matrix(1, 0, 0, 1, -5.684341886080802e-14, -5.684341886080802e-14)"/>
  <path fill="#E8B8A9" opacity="1.000000" stroke="none" d="M -8.484 444.438 C -10.756 449.555 -14.553 451.376 -19.875 450.281 C -21.314 449.985 -22.783 449.836 -24.655 449.575 C -24.169 447.956 -23.267 446.381 -22.278 444.509 C -19.137 443.43 -16.084 442.648 -12.659 441.827 C -11.089 442.598 -9.891 443.408 -8.484 444.438 Z" transform="matrix(1, 0, 0, 1, -5.684341886080802e-14, -5.684341886080802e-14)"/>
  <path fill="#8988B5" opacity="1.000000" stroke="none" d="M 170.04 437.904 C 169.738 437.559 169.933 437.25 170.352 436.787 C 198.316 436.672 226.056 436.705 253.797 436.766 C 255.606 436.77 257.415 436.992 259.526 437.393 C 240.874 437.769 221.921 437.885 202.967 437.952 C 192.158 437.989 181.347 437.946 170.04 437.904 Z" transform="matrix(1, 0, 0, 1, -5.684341886080802e-14, -5.684341886080802e-14)"/>
  <path fill="#E8B8A9" opacity="1.000000" stroke="none" d="M 464.841 422.902 C 463.048 427.974 459.126 425.968 456.003 425.605 C 453.83 425.353 450.676 425.152 451.298 420.948 C 452.001 419.811 452.812 419.058 453.778 418.069 C 457.113 418.598 460.293 419.361 463.673 420.438 C 464.186 421.382 464.5 422.01 464.841 422.902 Z" transform="matrix(1, 0, 0, 1, -5.684341886080802e-14, -5.684341886080802e-14)"/>
  <path fill="#3C3A5F" opacity="1.000000" stroke="none" d="M -8.655 401.857 C -8.273 410.112 -8.277 418.47 -8.204 427.291 C -8.191 428.202 -8.257 428.651 -8.326 429.837 C -8.441 431.967 -8.552 433.359 -8.663 434.751 C -9.099 435.076 -9.535 435.401 -9.971 435.725 C -9.661 424.47 -9.351 413.216 -8.655 401.857 Z" transform="matrix(1, 0, 0, 1, -5.684341886080802e-14, -5.684341886080802e-14)"/>
  <path fill="#FDFDFE" opacity="1.000000" stroke="none" d="M -8.583 435.137 C -8.552 433.359 -8.441 431.967 -8.229 430.166 C -8.036 432.609 -7.944 435.46 -8.221 438.493 C -8.56 437.624 -8.532 436.574 -8.583 435.137 Z" transform="matrix(1, 0, 0, 1, -5.684341886080802e-14, -5.684341886080802e-14)"/>
  <path fill="#AFAEE2" opacity="1.000000" stroke="none" d="M 147.867 438.079 C 147.94 437.927 148.152 437.895 148.682 437.924 C 148.668 438.057 148.337 438.129 147.867 438.079 Z" transform="matrix(1, 0, 0, 1, -5.684341886080802e-14, -5.684341886080802e-14)"/>
  <path fill="#8988B5" opacity="1.000000" stroke="none" d="M 115.562 167.489 C 115.577 155.677 115.581 143.865 115.61 132.053 C 115.645 117.618 125.541 107.688 140.032 107.674 C 183.788 107.635 227.544 107.622 271.3 107.649 C 284.822 107.657 294.84 117.641 294.969 131.239 C 295.082 143.05 295.018 154.863 294.975 167.532 C 294.561 172.333 291.88 173.007 288.639 172.768 C 285.5 172.536 282.729 171.783 282.858 167.287 C 282.899 155.172 282.967 143.525 282.894 131.879 C 282.847 124.385 278.214 119.793 270.701 119.787 C 227.109 119.753 183.518 119.743 139.926 119.783 C 132.213 119.791 127.84 124.156 127.794 131.854 C 127.722 143.832 127.818 155.811 127.817 168.172 C 127.027 173.268 123.315 172.665 120.081 172.728 C 116.587 172.795 115.646 170.464 115.562 167.489 Z" transform="matrix(1, 0, 0, 1, -5.684341886080802e-14, -5.684341886080802e-14)"/>
  <path fill="#AFAEE2" opacity="1.000000" stroke="none" d="M 115.205 167.587 C 115.646 170.464 116.587 172.795 120.081 172.728 C 123.315 172.665 127.027 173.268 128.187 168.228 C 131.854 168.551 134.498 169.755 133.849 174.316 C 133.853 178.469 133.867 182.169 133.839 186.329 C 133.823 191.245 133.849 195.701 133.866 200.58 C 133.839 204.253 133.821 207.503 133.796 211.041 C 133.814 211.709 133.837 212.09 133.816 212.867 C 134.396 217.138 131.508 218.255 128.57 219.574 C 128.122 219.65 127.947 219.696 127.771 219.743 C 124.013 219.731 120.256 219.719 115.729 219.555 C 111.602 218.388 109.099 216.727 109.779 212.271 C 109.705 210.765 109.69 209.605 109.676 208.445 C 109.461 197.086 109.528 185.711 108.901 174.374 C 108.631 169.499 111.264 168.48 115.205 167.587 Z" transform="matrix(1, 0, 0, 1, -5.684341886080802e-14, -5.684341886080802e-14)"/>
  <path fill="#AEADE5" opacity="1.000000" stroke="none" d="M 282.824 167.756 C 282.729 171.783 285.5 172.536 288.639 172.768 C 291.88 173.007 294.561 172.333 294.992 167.99 C 296.826 167.994 298.588 168.397 300.737 168.888 C 301.046 170.241 300.967 171.505 300.879 173.635 C 300.863 186.999 300.722 199.5 300.922 211.996 C 300.991 216.318 299.621 218.704 295.129 218.793 C 291.334 218.827 287.54 218.861 282.945 218.819 C 277.807 218.877 276.624 216.322 276.867 212.107 C 276.866 207.774 276.864 203.884 276.885 199.517 C 276.888 194.651 276.869 190.263 276.864 185.405 C 276.873 181.21 276.868 177.487 276.882 173.374 C 276.435 168.476 280.05 168.592 282.824 167.756 Z" transform="matrix(1, 0, 0, 1, -5.684341886080802e-14, -5.684341886080802e-14)"/>
  <path fill="#3A3967" opacity="1.000000" stroke="none" d="M 109.222 208.41 C 109.69 209.605 109.705 210.765 109.315 212.336 C 106.761 212.774 104.605 212.697 102.465 212.846 C 90.999 213.645 80.404 211.647 71.682 203.467 C 68.852 198.45 66.022 193.434 63.039 187.672 C 62.783 185.556 62.68 184.185 62.927 182.559 C 63.464 174.591 63.693 166.879 63.782 159.165 C 63.791 158.345 62.98 157.515 62.434 156.36 C 61.499 152.939 60.681 149.849 60.011 146.582 C 60.365 145.998 60.572 145.591 60.778 145.184 C 63.448 145.557 66.119 145.93 68.957 146.608 C 66.138 157.458 66.66 168.264 66.773 179.033 C 66.957 196.56 78.884 208.341 96.312 208.309 C 100.464 208.301 104.617 208.351 109.222 208.41 Z" transform="matrix(1, 0, 0, 1, -5.684341886080802e-14, -5.684341886080802e-14)"/>
  <path fill="#9ABFD9" opacity="1.000000" stroke="none" d="M -15.837 260.834 C -15.273 277.97 -13.526 295.165 -18.043 312.435 C -20.872 313.854 -23.543 314.916 -26.582 316.019 C -28.761 313.139 -28.095 310.686 -26.241 307.851 C -21.59 300.738 -21.346 292.967 -22.999 284.729 C -24.054 279.469 -24.714 273.744 -23.687 268.599 C -23.093 265.626 -18.797 263.391 -15.837 260.834 Z" transform="matrix(1, 0, 0, 1, -5.684341886080802e-14, -5.684341886080802e-14)"/>
  <path fill="#EFF0FA" opacity="1.000000" stroke="none" d="M -26.297 430.497 C -26.729 430.566 -26.83 430.307 -26.529 429.87 C -26.34 429.934 -26.286 430.093 -26.297 430.497 Z" transform="matrix(1, 0, 0, 1, -5.684341886080802e-14, -5.684341886080802e-14)"/>
  <path fill="#A9A9E4" opacity="1.000000" stroke="none" d="M 460.419 288.627 C 458.986 280.729 457.362 272.896 457.047 265.012 C 456.683 255.924 457.476 246.791 457.749 237.246 C 460.988 233.841 464.244 230.868 467.501 227.895 C 467.894 228.027 468.287 228.159 468.68 228.29 C 467.666 234.942 466.808 241.621 465.604 248.238 C 463.72 258.584 459.573 268.533 460.79 279.414 C 461.312 284.079 462.641 287.725 467.653 289.549 C 465.495 289.46 463.15 289.065 460.419 288.627 Z" transform="matrix(1, 0, 0, 1, -5.684341886080802e-14, -5.684341886080802e-14)"/>
  <path fill="#BBD5DC" opacity="1.000000" stroke="none" d="M 486.091 359.582 C 485.12 353.987 484.335 348.134 483.8 342.258 C 483.545 339.452 483.764 336.603 483.755 333.316 C 485.63 326.658 487.52 320.457 489.41 314.256 C 489.73 314.29 490.05 314.324 490.37 314.358 C 490.37 318.479 490.865 322.674 490.261 326.705 C 489.187 333.876 487.166 340.907 486.105 348.079 C 485.565 351.731 486.25 355.564 486.091 359.582 Z" transform="matrix(1, 0, 0, 1, -5.684341886080802e-14, -5.684341886080802e-14)"/>
  <path fill="#ACCDEC" opacity="1.000000" stroke="none" d="M 401.866 189.261 C 398.192 189.685 394.498 189.739 389.875 189.779 C 381.917 189.427 374.886 189.09 367.683 188.424 C 362.771 184.799 365.702 179.821 364.807 175.222 C 364.839 155.673 364.753 136.588 364.997 117.507 C 365.026 115.244 366.862 113.005 367.951 110.922 C 368.299 110.957 368.555 110.825 368.828 110.699 C 368.845 110.706 368.817 110.711 369.048 110.615 C 369.463 110.249 369.646 109.978 369.833 109.731 C 369.837 109.755 369.813 109.708 370.247 109.729 C 376.408 110.056 382.134 110.363 387.86 110.669 C 389.64 110.364 391.42 109.799 393.201 109.794 C 415.85 109.735 438.501 109.741 461.151 109.766 C 469.456 109.774 471.852 112.204 471.856 120.427 C 471.861 131.918 471.867 143.41 471.896 155.381 C 469.905 156.87 467.915 157.932 465.87 158.879 C 460.16 161.524 458.836 165.281 461.782 171.461 C 461.959 177.428 461.963 183.062 461.507 189.19 C 449.972 189.651 438.898 189.618 427.826 189.238 C 426.507 186.844 425.186 184.796 424.333 182.736 C 431.289 182.719 437.776 182.735 444.263 182.704 C 450.302 182.675 451.808 181.411 451.841 175.51 C 451.94 158.045 451.909 140.578 451.846 123.112 C 451.831 119.082 450.138 116.689 445.538 116.713 C 423.581 116.828 401.623 116.748 379.666 116.796 C 374.67 116.807 372.893 118.676 372.881 123.837 C 372.841 141.303 372.949 158.77 372.796 176.235 C 372.761 180.226 373.903 181.934 378.157 181.897 C 385.386 181.834 392.619 182.302 399.879 182.567 C 399.908 182.587 399.927 182.655 399.927 182.655 C 400.566 184.733 401.206 186.812 401.866 189.261 M 461.197 121.702 C 460.583 123.662 459.336 125.724 459.63 127.537 C 459.772 128.414 463.102 129.668 464.452 129.201 C 465.787 128.74 467.328 126.254 467.211 124.781 C 466.991 122.028 464.949 120.485 461.197 121.702 M 459.115 143.669 C 461.211 144.354 463.307 145.038 465.403 145.723 C 465.959 143.995 467.222 142.089 466.847 140.594 C 466.543 139.384 464.264 137.891 462.868 137.896 C 460.004 137.908 458.529 139.891 459.115 143.669 Z" transform="matrix(1, 0, 0, 1, -5.684341886080802e-14, -5.684341886080802e-14)"/>
  <path fill="#E8B8A9" opacity="1.000000" stroke="none" d="M 408.667 180.452 C 406.022 181.188 403.376 181.923 400.328 182.657 C 399.927 182.655 399.908 182.587 399.826 182.235 C 395.608 179.723 393.522 176.399 394.115 171.338 C 394.794 168.197 395.29 165.375 396.03 162.331 C 397.749 162.323 399.223 162.538 400.773 163.123 C 401.634 164.228 402.38 165.542 403.211 165.598 C 406.755 165.836 406.878 168.232 406.912 171.225 C 407.473 174.586 408.07 177.519 408.667 180.452 Z" transform="matrix(1, 0, 0, 1, -5.684341886080802e-14, -5.684341886080802e-14)"/>
  <path fill="#CBDBDC" opacity="1.000000" stroke="none" d="M 408.997 180.565 C 408.07 177.519 407.473 174.586 407.284 171.206 C 409.49 169.72 411.288 168.681 413.418 167.714 C 420.693 168.42 420.616 168.423 420.895 175.765 C 420.98 178.004 421.614 180.222 421.541 182.528 C 418.023 182.657 414.961 182.707 411.9 182.757 C 411.042 182.064 410.185 181.371 408.997 180.565 Z" transform="matrix(1, 0, 0, 1, -5.684341886080802e-14, -5.684341886080802e-14)"/>
  <path fill="#9ABFD9" opacity="1.000000" stroke="none" d="M 411.89 183.135 C 414.961 182.707 418.023 182.657 421.847 182.606 C 423.027 182.653 423.447 182.701 423.866 182.749 C 425.186 184.796 426.507 186.844 427.826 189.238 C 424.837 189.644 421.85 189.704 418.422 189.783 C 414.983 188.64 411.976 187.488 411.89 183.135 Z" transform="matrix(1, 0, 0, 1, -5.684341886080802e-14, -5.684341886080802e-14)"/>
  <path fill="#ADADE8" opacity="1.000000" stroke="none" d="M 58.837 102.732 C 58.864 98.602 61.021 96.498 65.064 96.826 C 68.996 97.145 70.05 99.738 69.976 103.46 C 69.795 112.585 69.824 121.718 69.966 130.844 C 70.022 134.399 68.083 136.207 65.099 136.595 C 62.225 136.969 59.378 136.247 59.184 131.821 C 59.605 124.048 59.829 116.951 59.81 109.854 C 59.804 107.479 59.179 105.106 58.837 102.732 Z" transform="matrix(1, 0, 0, 1, -5.684341886080802e-14, -5.684341886080802e-14)"/>
  <path fill="#BBD5DC" opacity="1.000000" stroke="none" d="M 60.786 144.778 C 60.572 145.591 60.365 145.998 59.544 146.576 C 54.214 146.665 49.498 146.583 44.783 146.5 C 46.862 140.013 46.568 139.389 39.147 135.454 C 37.654 134.944 36.738 134.737 35.821 134.53 C 35.556 134.064 35.291 133.599 34.931 132.879 C 36.549 127.378 40.401 129.788 42.871 131.052 C 48.54 133.955 53.868 137.548 59.201 141.062 C 60.078 141.64 60.28 143.243 60.786 144.778 Z" transform="matrix(1, 0, 0, 1, -5.684341886080802e-14, -5.684341886080802e-14)"/>
  <path fill="#393868" opacity="1.000000" stroke="none" d="M 30.501 130.579 C 28.529 133.852 26.479 136.814 24.429 139.776 C 23.846 139.438 23.263 139.099 22.679 138.761 C 24.144 135.849 25.608 132.936 27.056 129.695 C 28.168 129.667 29.295 129.968 30.501 130.579 Z" transform="matrix(1, 0, 0, 1, -5.684341886080802e-14, -5.684341886080802e-14)"/>
  <path fill="#A9A9E4" opacity="1.000000" stroke="none" d="M 58.825 103.203 C 59.179 105.106 59.804 107.479 59.81 109.854 C 59.829 116.951 59.605 124.048 59.186 131.44 C 58.868 122.381 58.841 113.028 58.825 103.203 Z" transform="matrix(1, 0, 0, 1, -5.684341886080802e-14, -5.684341886080802e-14)"/>
  <path fill="#F9FCFE" opacity="1.000000" stroke="none" d="M 208.688 -32.447 C 209.924 -31.882 211.641 -31.126 211.667 -30.316 C 211.849 -24.61 211.712 -18.891 211.583 -13.179 C 211.571 -12.641 210.909 -12.119 210.251 -11.151 C 202.96 -14.63 195.752 -18.07 188.017 -21.761 C 195.113 -25.409 201.75 -28.82 208.688 -32.447 Z" transform="matrix(1, 0, 0, 1, -5.684341886080802e-14, -5.684341886080802e-14)"/>
  <path fill="#F9FCFE" opacity="1.000000" stroke="none" d="M 175.828 -46.218 C 179.437 -49.042 180.969 -47.969 180.798 -44.047 C 180.548 -38.297 180.1 -32.555 179.68 -25.919 C 172.215 -29.538 165.373 -32.855 157.195 -36.819 C 163.913 -40.214 169.702 -43.139 175.828 -46.218 Z" transform="matrix(1, 0, 0, 1, -5.684341886080802e-14, -5.684341886080802e-14)"/>
  <path fill="#F9FCFE" opacity="1.000000" stroke="none" d="M 193.705 -14.159 C 198.451 -11.845 202.83 -9.627 208.322 -6.844 C 200.46 -3.258 193.219 0.046 185.218 3.695 C 185.218 -4.106 185.218 -10.446 185.218 -17.762 C 188.367 -16.402 190.852 -15.328 193.705 -14.159 Z" transform="matrix(1, 0, 0, 1, -5.684341886080802e-14, -5.684341886080802e-14)"/>
  <path opacity="1.000000" d="M 161.7 -4.978 C 160.675 -5.799 159.93 -6.4 158.992 -7.157 C 165.068 -10.542 170.792 -13.901 176.721 -16.846 C 177.577 -17.271 180.582 -15.772 180.624 -15.051 C 180.953 -9.295 180.807 -3.513 180.807 3.771 C 173.803 0.599 167.892 -2.079 161.7 -4.978 Z" stroke="none" style="fill: rgb(249, 252, 254);" transform="matrix(1, 0, 0, 1, -5.684341886080802e-14, -5.684341886080802e-14)"/>
  <path fill="#F9FCFE" opacity="1.000000" stroke="none" d="M 159.368 -13.559 C 157.674 -12.936 156.319 -12.522 154.332 -11.914 C 154.332 -19.106 154.332 -25.623 154.332 -33.024 C 161.495 -29.537 168.484 -26.136 177.221 -21.883 C 172.28 -19.635 168.572 -17.961 164.877 -16.258 C 163.14 -15.458 161.43 -14.599 159.368 -13.559 Z" transform="matrix(1, 0, 0, 1, -5.684341886080802e-14, -5.684341886080802e-14)"/>
  <path fill="#F9FCFE" opacity="1.000000" stroke="none" d="M 184.87 -28.826 C 184.862 -35.035 184.862 -40.81 184.862 -47.642 C 192.57 -44.144 199.5 -40.999 207.303 -37.459 C 205.33 -36.072 204.028 -34.907 202.523 -34.144 C 197.847 -31.774 193.141 -29.445 188.325 -27.384 C 187.476 -27.02 186.043 -28.02 184.87 -28.826 Z" transform="matrix(1, 0, 0, 1, -5.684341886080802e-14, -5.684341886080802e-14)"/>
  <path fill="#EFF0FA" opacity="1.000000" stroke="none" d="M 44.501 146.698 C 49.498 146.583 54.214 146.665 59.397 146.753 C 60.681 149.849 61.499 152.939 62.335 156.825 C 62.427 166.018 62.502 174.417 62.578 182.815 C 62.68 184.185 62.783 185.556 62.866 187.34 C 58.045 186.271 57.08 181.791 56.022 177.962 C 53.328 168.218 51.664 158.083 41.928 151.764 C 42.491 150.004 43.356 148.45 44.501 146.698 Z" transform="matrix(1, 0, 0, 1, -5.684341886080802e-14, -5.684341886080802e-14)"/>
  <path fill="#393868" opacity="1.000000" stroke="none" d="M 35.747 134.883 C 36.738 134.737 37.654 134.944 38.783 135.44 C 37.104 138.706 35.214 141.682 33.323 144.659 C 32.841 144.46 32.359 144.261 31.877 144.061 C 31.348 140.574 34.56 138.224 35.747 134.883 Z" transform="matrix(1, 0, 0, 1, -5.684341886080802e-14, -5.684341886080802e-14)"/>
  <path fill="#EEEFF9" opacity="1.000000" stroke="none" d="M 367.861 110.755 C 366.862 113.005 365.026 115.244 364.997 117.507 C 364.753 136.588 364.839 155.673 364.532 175.025 C 361.379 171.636 358.217 172.252 355.252 174.952 C 350.321 179.441 347.032 184.804 346.817 191.759 C 346.616 198.278 346.395 204.81 345.789 211.299 C 345.026 219.458 341.595 222.094 335.077 221.919 C 328.697 221.748 323.937 220.107 320.789 214.274 C 318.766 210.526 315.036 208.905 311.052 210.014 C 307.765 210.93 305.427 213.114 304.619 217.246 C 303.24 224.305 306.055 229.722 309.708 235.089 C 312.108 238.614 315.555 241.775 316.765 245.651 C 317.738 248.769 317.066 253.358 315.298 256.13 C 313.112 259.559 309.053 259.316 305.009 257.469 C 302.648 256.39 299.498 257.037 296.436 256.868 C 295.815 256.765 295.46 256.702 295.105 256.639 C 295.089 244.333 295.072 232.026 295.092 219.257 C 299.621 218.704 300.991 216.318 300.922 211.996 C 300.722 199.5 300.863 186.999 300.894 174.017 C 321.282 174.461 333.238 163.072 333.236 142.748 C 333.234 120.775 333.306 98.802 333.197 76.829 C 333.147 66.762 336.82 58.752 345.542 53.317 C 344.757 56.937 347.02 58.143 349.501 58.656 C 356.549 60.114 359.093 68.668 366.592 69.35 C 366.878 69.376 367.067 70.178 367.35 70.584 C 370.538 75.155 372.905 80.82 377.136 84.011 C 382.706 88.211 381.6 93.252 381.918 98.506 C 382.069 100.996 382.809 103.451 383.281 105.922 C 383.281 105.922 383.446 106.325 382.881 106.504 C 378.029 107.2 373.038 104.803 369.813 109.708 C 369.813 109.708 369.837 109.755 369.596 109.822 C 369.175 110.162 368.996 110.437 368.817 110.711 C 368.817 110.711 368.845 110.706 368.588 110.685 C 368.332 110.664 367.861 110.755 367.861 110.755 Z" transform="matrix(1, 0, 0, 1, -5.684341886080802e-14, -5.684341886080802e-14)"/>
  <path fill="#AFAEE2" opacity="1.000000" stroke="none" d="M 370.247 109.729 C 373.038 104.803 378.029 107.2 382.803 106.707 C 384.491 107.295 385.691 107.86 387.186 108.416 C 387.596 108.907 387.71 109.406 387.842 110.288 C 382.134 110.363 376.408 110.056 370.247 109.729 Z" transform="matrix(1, 0, 0, 1, -5.684341886080802e-14, -5.684341886080802e-14)"/>
  <path fill="#AFAEE2" opacity="1.000000" stroke="none" d="M 383.725 73.565 C 383.481 73.486 383.341 73.172 383.338 72.625 C 383.593 72.705 383.711 73.017 383.725 73.565 Z" transform="matrix(1, 0, 0, 1, -5.684341886080802e-14, -5.684341886080802e-14)"/>
  <path fill="#EEEFF9" opacity="1.000000" stroke="none" d="M 263.888 52.054 C 263.889 51.035 263.921 50.385 263.954 49.735 C 264.257 49.648 264.561 49.561 264.865 49.474 C 265.835 52.339 266.804 55.203 267.774 58.068 C 267.191 58.323 266.609 58.578 266.026 58.833 C 265.324 56.696 264.622 54.559 263.888 52.054 Z" transform="matrix(1, 0, 0, 1, -5.684341886080802e-14, -5.684341886080802e-14)"/>
  <path fill="#EEEFF9" opacity="1.000000" stroke="none" d="M 263.089 46.769 C 263.263 46.65 263.439 46.708 263.614 46.765 C 263.439 46.825 263.265 46.885 263.089 46.769 Z" transform="matrix(1, 0, 0, 1, -5.684341886080802e-14, -5.684341886080802e-14)"/>
  <path fill="#EEEFF9" opacity="1.000000" stroke="none" d="M 266.309 62.276 C 266.276 62.22 266.342 62.331 266.309 62.276 Z" transform="matrix(1, 0, 0, 1, -5.684341886080802e-14, -5.684341886080802e-14)"/>
  <path fill="#F9FCFE" opacity="1.000000" stroke="none" d="M 290.493 -63.329 C 284.382 -63.141 284.862 -68.171 284.085 -71.387 C 283.432 -74.091 284.37 -77.311 285.149 -80.152 C 285.396 -81.055 287.646 -82.265 288.549 -81.978 C 291.793 -80.946 294.904 -79.434 297.938 -77.857 C 298.528 -77.549 298.964 -76.024 298.756 -75.253 C 297.467 -70.446 296.17 -65.563 290.493 -63.329 Z" transform="matrix(1, 0, 0, 1, -5.684341886080802e-14, -5.684341886080802e-14)"/>
  <path fill="#F9FCFE" opacity="1.000000" stroke="none" d="M 278.276 -58.263 C 285.577 -56.996 292.443 -55.73 299.639 -54.404 C 295.56 -48.424 288.558 -46.804 280.236 -49.337 C 277.807 -50.076 272.488 -56.946 272.343 -59.727 C 274.212 -59.23 276.027 -58.747 278.276 -58.263 Z" transform="matrix(1, 0, 0, 1, -5.684341886080802e-14, -5.684341886080802e-14)"/>
  <path fill="#F9FCFE" opacity="1.000000" stroke="none" d="M 280.864 -79.159 C 281.536 -73.153 282.201 -67.528 282.931 -61.352 C 279.531 -60.445 274.819 -60.783 272.298 -64.785 C 270.914 -66.981 271.22 -71.55 272.662 -73.869 C 274.271 -76.457 278.032 -77.707 280.864 -79.159 Z" transform="matrix(1, 0, 0, 1, -5.684341886080802e-14, -5.684341886080802e-14)"/>
  <path fill="#F9FCFE" opacity="1.000000" stroke="none" d="M 292.557 -59.58 C 295.825 -64.14 299.331 -68.453 302.975 -72.937 C 305.89 -68.154 304.617 -63.383 302.924 -58.816 C 302.571 -57.863 300.144 -57.084 298.788 -57.237 C 296.737 -57.47 294.787 -58.591 292.557 -59.58 Z" transform="matrix(1, 0, 0, 1, -5.684341886080802e-14, -5.684341886080802e-14)"/>
  <path fill="#3A3967" opacity="1.000000" stroke="none" d="M -36.123 202.734 C -35.748 203.107 -35.572 203.653 -35.396 204.2 C -35.756 204.063 -36.117 203.926 -36.586 203.537 C -36.571 203.159 -36.447 203.034 -36.123 202.734 Z" transform="matrix(1, 0, 0, 1, -5.684341886080802e-14, -5.684341886080802e-14)"/>
  <path fill="#EEEFF9" opacity="1.000000" stroke="none" d="M 71.337 203.527 C 80.404 211.647 90.999 213.645 102.465 212.846 C 104.605 212.697 106.761 212.774 109.374 212.682 C 109.099 216.727 111.602 218.388 115.25 219.566 C 115.527 230.126 115.514 240.523 115.356 251.379 C 114.386 251.753 113.319 251.972 112.769 251.538 C 105.753 245.997 98.163 240.984 92.022 234.586 C 85.092 227.368 79.519 218.853 73.269 210.971 C 71.855 209.188 70.308 204.905 71.337 203.527 Z" transform="matrix(1, 0, 0, 1, -5.684341886080802e-14, -5.684341886080802e-14)"/>
  <path fill="#DCDCED" opacity="1.000000" stroke="none" d="M 296.704 256.907 C 299.498 257.037 302.648 256.39 305.009 257.469 C 309.053 259.316 313.112 259.559 315.298 256.13 C 317.066 253.358 317.738 248.769 316.765 245.651 C 315.555 241.775 312.108 238.614 309.708 235.089 C 306.055 229.722 303.24 224.305 304.619 217.246 C 305.427 213.114 307.765 210.93 311.052 210.014 C 315.036 208.905 318.766 210.526 320.789 214.274 C 323.937 220.107 328.697 221.748 335.077 221.919 C 341.595 222.094 345.026 219.458 345.789 211.299 C 346.395 204.81 346.616 198.278 346.817 191.759 C 347.032 184.804 350.321 179.441 355.252 174.952 C 358.217 172.252 361.379 171.636 364.513 175.489 C 365.702 179.821 362.771 184.799 367.729 188.81 C 368.188 190.967 369.024 192.64 368.569 193.813 C 366.149 200.068 363.316 206.161 360.814 212.386 C 359.613 215.377 357.567 218.781 358.113 221.564 C 359.267 227.449 361.874 233.05 363.885 238.767 C 364.408 241.521 364.943 244.274 365.452 247.03 C 366.286 251.542 362.786 255.001 358.14 254.383 C 356.029 254.103 353.843 253.732 351.768 253.999 C 348.645 254.401 346.616 256.215 346.84 259.71 C 347.094 263.665 347.244 267.634 347.69 271.568 C 348.41 277.913 347.537 283.333 341.435 287.073 C 337.237 289.646 334.435 293.538 333.978 299.612 C 336.405 297.377 338.322 295.613 340.594 293.844 C 337.396 302.058 335.851 310.628 336.91 319.537 C 337.645 325.714 338.753 331.848 339.015 338.101 C 335.306 326.744 334.485 314.97 334.883 302.941 C 329.041 304.367 325.264 310.415 324.836 317.31 C 324.345 325.199 326.449 332.384 329.903 339.347 C 330.932 341.421 331.422 343.762 332.159 345.98 C 331.706 346.217 331.252 346.455 330.798 346.692 C 329.987 345.833 329.176 344.975 328.076 343.925 C 327.144 340.688 326.437 337.652 325.874 334.59 C 325.34 331.678 323.744 331.736 321.229 332.479 C 319.158 323.149 317.808 314.157 315.715 305.341 C 314.653 300.867 315.724 297.223 317.681 293.534 C 319.079 290.898 321.107 288.523 322.1 285.761 C 324.098 280.198 328.448 278.559 333.598 277.699 C 336.139 277.276 338.628 276.539 341.14 275.944 C 329.374 274.483 320.902 278.928 316.24 290.272 C 315.98 286.803 316.157 283.746 316.758 280.775 C 317.641 276.409 318.827 272.103 320.185 267.618 C 323.459 263.499 326.121 259.246 329.476 255.637 C 334.702 250.017 339.602 243.64 348.289 243.076 C 350.538 242.93 352.779 242.671 355.024 242.464 C 355.028 242.13 355.032 241.797 355.036 241.464 C 351.44 241.464 347.843 241.464 343.763 241.464 C 357.297 224.046 357.292 205.215 356.245 190.005 C 352.792 201.915 355.435 213.819 350.596 224.832 C 345.807 235.731 338.792 244.273 329.475 251.955 C 327.247 240.598 326.191 238.571 321.831 237.462 C 322.574 238.516 323.362 239.22 323.633 240.087 C 324.998 244.45 326.688 248.795 327.269 253.275 C 327.488 254.97 324.867 256.924 323.839 258.914 C 322.36 261.777 321.152 264.781 319.475 267.791 C 317.767 270.885 316.414 273.913 315.411 276.158 C 309.647 272.455 303.669 268.614 297.428 264.755 C 296.484 263.723 295.804 262.71 295.124 261.697 C 295.1 260.974 295.076 260.251 295.361 259.094 C 296.015 258.076 296.359 257.492 296.704 256.907 M 319.191 232.121 C 319.456 233.225 319.72 234.328 319.985 235.432 C 320.553 235.243 321.12 235.054 321.687 234.866 C 321.055 234.037 320.423 233.209 319.191 232.121 Z" transform="matrix(1, 0, 0, 1, -5.684341886080802e-14, -5.684341886080802e-14)"/>
  <path fill="#EEEFF9" opacity="1.000000" stroke="none" d="M 364.23 238.727 C 361.874 233.05 359.267 227.449 358.113 221.564 C 357.567 218.781 359.613 215.377 360.814 212.386 C 363.316 206.161 366.149 200.068 368.569 193.813 C 369.024 192.64 368.188 190.967 367.902 189.139 C 374.886 189.09 381.917 189.427 389.417 189.81 C 387.921 196.17 386.419 202.677 383.884 208.755 C 379.76 218.644 374.426 227.937 367.549 236.241 C 366.745 237.212 365.575 237.879 364.23 238.727 Z" transform="matrix(1, 0, 0, 1, -5.684341886080802e-14, -5.684341886080802e-14)"/>
  <path fill="#DCDCED" opacity="1.000000" stroke="none" d="M 352.362 317.785 C 352.985 313.105 354.254 308.392 354.756 303.599 C 354.928 301.957 353.177 300.114 352.128 297.727 C 354.861 293.333 357.771 289.574 360.68 285.816 C 360.197 285.422 359.713 285.028 359.23 284.634 C 355.084 289.681 350.938 294.728 346.791 299.775 C 345.37 297.749 343.949 295.723 342.142 293.644 C 343.794 291.514 345.931 289.524 347.851 287.343 C 351.399 283.312 355.437 279.539 358.164 274.995 C 363.439 266.202 373.128 264.982 378.411 273.004 C 380.88 276.752 379.748 280.214 375.47 281.613 C 373.591 282.228 371.586 282.447 369.671 282.967 C 362.578 284.893 359.921 290.183 362.588 297.12 C 363.54 299.596 364.654 302.011 365.72 304.443 C 367.703 308.966 366.079 312.374 361.314 314.096 C 358.39 315.152 355.573 316.502 352.362 317.785 Z" transform="matrix(1, 0, 0, 1, -5.684341886080802e-14, -5.684341886080802e-14)"/>
  <path fill="#EFF0FA" opacity="1.000000" stroke="none" d="M 282.758 278.765 C 259.684 282.473 236.436 283.621 213.132 282.601 C 205.669 282.274 198.285 280.176 190.86 278.921 C 184.541 277.853 178.179 277.006 171.902 275.731 C 167.452 274.827 163.106 273.401 158.728 272.157 C 153.561 270.689 148.312 269.436 143.283 267.586 C 139.02 266.018 134.816 264.049 131.011 261.598 C 129.652 260.723 128.978 257.924 128.947 255.989 C 128.762 244.17 128.851 232.347 128.845 220.036 C 131.508 218.255 134.396 217.138 134.283 212.901 C 154.474 212.537 174.152 212.536 193.842 212.907 C 193.542 214.457 193.229 215.634 192.585 216.89 C 190.393 217.901 187.483 218.123 189.08 221.948 C 188.902 224.904 188.945 227.396 188.772 229.872 C 188.342 236.009 189.151 241.588 193.593 246.469 C 197.136 250.361 199.926 254.933 203.13 259.143 C 203.858 260.1 204.915 260.807 205.701 261.521 C 208.314 258.089 210.821 255.207 212.858 252.025 C 216.03 247.071 219.915 242.222 221.553 236.746 C 222.95 232.077 221.605 226.589 221.567 221.12 C 221.952 216.55 218.357 217.344 216.093 216.12 C 216.039 214.72 215.962 213.648 216.351 212.59 C 236.834 212.586 256.85 212.568 276.867 212.551 C 276.624 216.322 277.807 218.877 282.547 218.753 C 282.968 219.834 282.987 220.905 282.996 222.831 C 282.91 242.047 282.834 260.406 282.758 278.765 Z" transform="matrix(1, 0, 0, 1, -5.684341886080802e-14, -5.684341886080802e-14)"/>
  <path fill="#ADADE8" opacity="1.000000" stroke="none" d="M 156.713 343 C 167.907 342.749 178.897 342.764 190.268 343.106 C 182.046 356.96 173.407 370.464 164.9 384.05 C 164.141 385.261 164.231 387.004 164.162 388.85 C 165.025 389.377 165.655 389.705 166.284 389.706 C 186.445 389.737 206.605 389.755 226.766 389.69 C 227.774 389.687 228.78 388.929 229.826 388.347 C 229.865 388.171 229.991 387.833 230.319 387.763 C 237.807 380.616 244.966 373.54 252.212 366.377 C 244.028 358.148 236.423 350.502 228.819 342.855 C 246.505 342.822 264.191 342.79 282.341 342.73 C 282.826 349.525 282.586 356.361 282.968 363.162 C 283.191 367.119 281.613 369.644 278.93 372.204 C 269.957 380.764 261.162 389.51 251.626 398.449 C 236.294 398.759 221.634 398.805 206.974 398.85 C 198.197 398.817 189.42 398.838 180.643 398.726 C 176.892 398.677 173.145 398.35 168.661 398.434 C 161.285 398.724 154.644 398.765 148.003 398.726 C 132.241 398.633 116.479 398.501 100.718 398.384 C 103.701 394.774 106.405 390.88 109.719 387.604 C 121.719 375.742 133.888 364.051 146.075 352.38 C 149.407 349.189 153.023 346.296 156.713 343 Z" transform="matrix(1, 0, 0, 1, -5.684341886080802e-14, -5.684341886080802e-14)"/>
  <path fill="#EFF0FA" opacity="1.000000" stroke="none" d="M 206.894 399.179 C 221.634 398.805 236.294 398.759 251.426 398.707 C 251.892 407.421 251.886 416.142 251.407 425.366 C 228.251 425.977 205.567 426.084 182.883 426.192 C 182.714 426.11 182.544 426.028 182.103 425.87 C 188.652 418.778 195.493 411.78 202.283 404.733 C 203.88 403.075 205.308 401.254 206.894 399.179 Z" transform="matrix(1, 0, 0, 1, -5.684341886080802e-14, -5.684341886080802e-14)"/>
  <path fill="#DCDCED" opacity="1.000000" stroke="none" d="M 318.922 333.164 C 316.882 334.552 314.842 335.94 313.385 336.931 C 310.438 330.236 307.655 323.912 304.768 316.834 C 304.378 314.794 303.831 313.503 303.853 312.222 C 303.921 308.34 303.47 304.976 298.387 304.25 C 299.178 303.946 299.968 303.643 300.963 303.261 C 298.726 302.132 294.677 301.85 298.965 298.116 C 299.953 297.256 300.021 293.293 299.221 292.783 C 295.858 290.639 296.901 287.606 296.813 284.811 C 296.639 279.346 296.594 273.877 296.6 268.409 C 296.6 267.851 297.306 267.293 298.018 266.856 C 302.566 270.112 306.926 273.071 310.94 276.443 C 313.475 278.572 314.812 281.221 314.061 285.102 C 313.109 290.016 312.481 295.254 313.132 300.165 C 314.599 311.226 316.938 322.171 318.922 333.164 Z" transform="matrix(1, 0, 0, 1, -5.684341886080802e-14, -5.684341886080802e-14)"/>
  <path fill="#ACCDEC" opacity="1.000000" stroke="none" d="M 297.428 264.755 C 297.701 265.209 297.71 265.645 297.702 266.408 C 297.306 267.293 296.6 267.851 296.6 268.409 C 296.594 273.877 296.639 279.346 296.813 284.811 C 296.901 287.606 295.858 290.639 299.221 292.783 C 300.021 293.293 299.953 297.256 298.965 298.116 C 294.677 301.85 298.726 302.132 300.963 303.261 C 299.968 303.643 299.178 303.946 298.387 304.25 C 303.47 304.976 303.921 308.34 303.853 312.222 C 303.831 313.503 304.378 314.794 304.665 316.492 C 304.188 317.456 303.203 318.142 303.309 318.539 C 304.695 323.749 306.234 328.917 307.736 334.096 C 307.078 334.385 306.42 334.674 305.762 334.963 C 304.142 331.346 302.196 327.833 301.008 324.08 C 300.124 321.286 300.276 318.175 299.866 315.219 C 299.571 313.089 299.822 310.352 298.601 308.972 C 292.733 302.338 295.259 294.487 294.977 287.112 C 294.666 278.963 294.94 270.793 295.042 262.164 C 295.804 262.71 296.484 263.723 297.428 264.755 Z" transform="matrix(1, 0, 0, 1, -5.684341886080802e-14, -5.684341886080802e-14)"/>
  <path fill="#8988B5" opacity="1.000000" stroke="none" d="M 183.017 426.542 C 205.567 426.084 228.251 425.977 251.404 425.838 C 250.905 426.454 249.94 427.663 248.968 427.667 C 227.597 427.767 206.224 427.74 184.852 427.691 C 184.285 427.69 183.718 427.17 183.017 426.542 Z" transform="matrix(1, 0, 0, 1, -5.684341886080802e-14, -5.684341886080802e-14)"/>
  <path fill="#AFAEE2" opacity="1.000000" stroke="none" d="M 282.694 304.542 C 272.59 298.311 272.444 289.067 282.585 282.925 C 282.883 289.933 282.84 296.996 282.694 304.542 Z" transform="matrix(1, 0, 0, 1, -5.684341886080802e-14, -5.684341886080802e-14)"/>
  <path fill="#8988B5" opacity="1.000000" stroke="none" d="M 282.821 279.168 C 282.834 260.406 282.91 242.047 283.07 223.226 C 283.722 223.794 284.779 224.82 284.785 225.852 C 284.885 243.878 284.87 261.904 284.812 279.93 C 284.809 280.802 284.185 281.672 283.483 282.683 C 283.039 281.74 282.961 280.656 282.821 279.168 Z" transform="matrix(1, 0, 0, 1, -5.684341886080802e-14, -5.684341886080802e-14)"/>
  <path fill="#AEADE5" opacity="1.000000" stroke="none" d="M 297.637 342.187 C 301.108 342.59 304.174 342.845 308.382 343.194 C 304.138 347.689 300.551 351.488 296.964 355.287 C 296.444 355.062 295.925 354.836 295.405 354.61 C 295.405 350.548 295.386 346.486 295.482 342.426 C 295.485 342.283 296.622 342.167 297.637 342.187 Z" transform="matrix(1, 0, 0, 1, -5.684341886080802e-14, -5.684341886080802e-14)"/>
  <path fill="#AEADE9" opacity="1.000000" stroke="none" d="M 299.867 333.762 C 296.728 329.509 292.676 325.542 295.899 318.558 C 297.966 323.643 299.819 328.171 301.598 332.728 C 301.648 332.856 300.902 333.295 300.193 333.671 C 299.858 333.753 299.867 333.762 299.867 333.762 Z" transform="matrix(1, 0, 0, 1, -5.684341886080802e-14, -5.684341886080802e-14)"/>
  <path fill="#AEADE9" opacity="1.000000" stroke="none" d="M 299.852 333.749 C 302.165 335.656 304.484 337.566 306.802 339.477 C 306.462 340.024 306.123 340.572 305.783 341.119 C 302.028 339.06 298.274 337.001 294.52 334.942 C 294.735 334.4 294.95 333.857 295.165 333.315 C 296.487 333.471 297.81 333.627 299.499 333.773 C 299.867 333.762 299.858 333.753 299.852 333.749 Z" transform="matrix(1, 0, 0, 1, -5.684341886080802e-14, -5.684341886080802e-14)"/>
  <path fill="#ACCDEC" opacity="1.000000" stroke="none" d="M 296.436 256.868 C 296.359 257.492 296.015 258.076 295.404 258.735 C 295.081 258.326 295.025 257.843 295.037 256.999 C 295.46 256.702 295.815 256.765 296.436 256.868 Z" transform="matrix(1, 0, 0, 1, -5.684341886080802e-14, -5.684341886080802e-14)"/>
  <path fill="#EFF0FA" opacity="1.000000" stroke="none" d="M 100.354 398.455 C 116.479 398.501 132.241 398.633 148.003 398.726 C 154.644 398.765 161.285 398.724 168.395 398.698 C 166.091 401.978 163.352 405.309 160.529 408.568 C 159.145 410.166 157.605 411.63 156.006 413.461 C 150.973 416.5 153.604 421.205 152.888 425.509 C 133.418 425.975 113.984 425.975 93.854 425.975 C 93.854 418.365 93.422 411.092 94.136 403.933 C 94.333 401.956 97.945 400.32 100.354 398.455 Z" transform="matrix(1, 0, 0, 1, -5.684341886080802e-14, -5.684341886080802e-14)"/>
  <path fill="#8988B5" opacity="1.000000" stroke="none" d="M 127.275 220.871 C 127.681 262.113 127.71 303.466 127.661 345.281 C 127.008 344.383 125.934 343.023 125.931 341.661 C 125.841 302.633 125.849 263.605 125.902 224.577 C 125.904 223.378 126.551 222.18 127.275 220.871 Z" transform="matrix(1, 0, 0, 1, -5.684341886080802e-14, -5.684341886080802e-14)"/>
  <path fill="#DCDCED" opacity="1.000000" stroke="none" d="M 347.561 309.655 C 348.252 316.7 348.074 323.632 345.124 330.204 C 344.658 330.179 344.193 330.155 343.727 330.13 C 344.131 323.618 344.535 317.105 345.317 310.155 C 346.316 309.697 346.939 309.676 347.561 309.655 Z" transform="matrix(1, 0, 0, 1, -5.684341886080802e-14, -5.684341886080802e-14)"/>
  <path fill="#EFF0FA" opacity="1.000000" stroke="none" d="M 347.628 309.232 C 346.939 309.676 346.316 309.697 345.384 309.701 C 345.065 309.252 345.057 308.819 345.277 307.854 C 345.575 306.759 345.645 306.197 345.714 305.635 C 346.046 303.927 346.379 302.22 346.751 300.144 C 350.938 294.728 355.084 289.681 359.23 284.634 C 359.713 285.028 360.197 285.422 360.68 285.816 C 357.771 289.574 354.861 293.333 351.902 297.435 C 347.347 300.28 347.879 304.679 347.628 309.232 Z" transform="matrix(1, 0, 0, 1, -5.684341886080802e-14, -5.684341886080802e-14)"/>
  <path fill="#EEEFF9" opacity="1.000000" stroke="none" d="M 358.849 336.745 C 359.946 335.76 361.049 334.781 362.507 333.778 C 362.862 333.753 362.868 333.772 362.868 333.772 C 361.734 334.69 360.6 335.607 359.167 336.643 C 358.868 336.761 358.856 336.751 358.849 336.745 Z" transform="matrix(1, 0, 0, 1, -5.684341886080802e-14, -5.684341886080802e-14)"/>
  <path fill="#DCDCED" opacity="1.000000" stroke="none" d="M 345.514 305.847 C 345.645 306.197 345.575 306.759 345.313 307.529 C 345.185 307.178 345.25 306.619 345.514 305.847 Z" transform="matrix(1, 0, 0, 1, -5.684341886080802e-14, -5.684341886080802e-14)"/>
  <path fill="#FDFDFF" opacity="1.000000" stroke="none" d="M 359.779 325.656 C 360.199 325.377 360.682 325.172 361.166 324.967 C 360.947 325.244 360.727 325.521 360.24 325.837 C 359.971 325.875 359.842 325.73 359.779 325.656 Z" transform="matrix(1, 0, 0, 1, -5.684341886080802e-14, -5.684341886080802e-14)"/>
  <path fill="#FDFDFF" opacity="1.000000" stroke="none" d="M 364.861 332.758 C 364.401 333.102 363.935 333.438 363.168 333.773 C 362.868 333.772 362.862 333.753 362.854 333.75 C 363.306 333.4 363.766 333.053 364.532 332.719 C 364.838 332.732 364.855 332.749 364.861 332.758 Z" transform="matrix(1, 0, 0, 1, -5.684341886080802e-14, -5.684341886080802e-14)"/>
  <path fill="#FDFDFF" opacity="1.000000" stroke="none" d="M 348.881 327.781 C 348.772 327.814 348.644 327.826 348.666 327.778 C 348.816 327.719 348.861 327.759 348.881 327.781 Z" transform="matrix(1, 0, 0, 1, -5.684341886080802e-14, -5.684341886080802e-14)"/>
  <path fill="#FDFDFF" opacity="1.000000" stroke="none" d="M 363.955 322.863 C 363.847 323.154 363.622 323.324 363.397 323.494 C 363.351 323.259 363.305 323.024 363.427 322.647 C 363.596 322.507 363.837 322.742 363.955 322.863 Z" transform="matrix(1, 0, 0, 1, -5.684341886080802e-14, -5.684341886080802e-14)"/>
  <path fill="#EFF0FA" opacity="1.000000" stroke="none" d="M 282.858 167.287 C 280.05 168.592 276.435 168.476 276.413 173.387 C 255.902 173.811 235.88 173.831 215.681 173.472 C 215.27 170.491 215.062 167.886 214.795 165.287 C 214.392 161.365 211.389 159.97 208.26 159.933 C 204.063 159.884 199.039 157.998 196.155 162.913 C 195.42 164.166 196.03 166.159 195.836 167.789 C 195.592 169.838 195.156 171.864 194.34 173.857 C 173.871 173.831 153.865 173.848 133.859 173.865 C 134.498 169.755 131.854 168.551 128.213 167.846 C 127.818 155.811 127.722 143.832 127.794 131.854 C 127.84 124.156 132.213 119.791 139.926 119.783 C 183.518 119.743 227.109 119.753 270.701 119.787 C 278.214 119.793 282.847 124.385 282.894 131.879 C 282.967 143.525 282.899 155.172 282.858 167.287 Z" transform="matrix(1, 0, 0, 1, -5.684341886080802e-14, -5.684341886080802e-14)"/>
  <path fill="#EEEFF9" opacity="1.000000" stroke="none" d="M 133.874 200.157 C 133.849 195.701 133.823 191.245 134.306 186.321 C 154.675 185.774 174.535 185.695 194.459 186.101 C 194.22 191.304 193.917 196.021 193.234 200.611 C 173.194 200.374 153.534 200.266 133.874 200.157 Z" transform="matrix(1, 0, 0, 1, -5.684341886080802e-14, -5.684341886080802e-14)"/>
  <path fill="#8988B5" opacity="1.000000" stroke="none" d="M 194.395 185.616 C 174.535 185.695 154.675 185.774 134.348 185.862 C 133.867 182.169 133.853 178.469 133.849 174.316 C 153.865 173.848 173.871 173.831 194.369 174.071 C 194.862 174.328 194.878 174.761 194.868 175.208 C 194.704 178.976 194.55 182.296 194.395 185.616 Z" transform="matrix(1, 0, 0, 1, -5.684341886080802e-14, -5.684341886080802e-14)"/>
  <path fill="#8989B8" opacity="1.000000" stroke="none" d="M 133.866 200.58 C 153.534 200.266 173.194 200.374 193.566 200.615 C 194.88 200.964 195.482 201.18 195.752 201.643 C 194.906 204.845 194.393 207.799 193.409 210.753 C 173.227 210.753 153.515 210.753 133.803 210.753 C 133.821 207.503 133.839 204.253 133.866 200.58 Z" transform="matrix(1, 0, 0, 1, -5.684341886080802e-14, -5.684341886080802e-14)"/>
  <path fill="#8988B5" opacity="1.000000" stroke="none" d="M 133.796 211.041 C 153.515 210.753 173.227 210.753 193.422 211.051 C 193.88 211.744 193.855 212.139 193.83 212.535 C 174.152 212.536 154.474 212.537 134.329 212.504 C 133.837 212.09 133.814 211.709 133.796 211.041 Z" transform="matrix(1, 0, 0, 1, -5.684341886080802e-14, -5.684341886080802e-14)"/>
  <path fill="#EEEFF9" opacity="1.000000" stroke="none" d="M 276.849 185.875 C 276.869 190.263 276.888 194.651 276.416 199.497 C 256.168 199.887 236.412 199.819 216.615 199.338 C 216.417 194.598 216.26 190.27 216.556 185.931 C 236.956 185.904 256.903 185.89 276.849 185.875 Z" transform="matrix(1, 0, 0, 1, -5.684341886080802e-14, -5.684341886080802e-14)"/>
  <path fill="#8988B5" opacity="1.000000" stroke="none" d="M 216.655 199.751 C 236.412 199.819 256.168 199.887 276.394 199.975 C 276.864 203.884 276.866 207.774 276.867 212.107 C 256.85 212.568 236.834 212.586 216.368 212.15 C 215.925 209.888 216.22 208.019 215.857 206.289 C 215.517 204.666 214.483 203.189 213.882 201.347 C 214.892 200.614 215.774 200.183 216.655 199.751 Z" transform="matrix(1, 0, 0, 1, -5.684341886080802e-14, -5.684341886080802e-14)"/>
  <path fill="#8988B5" opacity="1.000000" stroke="none" d="M 276.864 185.405 C 256.903 185.89 236.956 185.904 216.507 185.469 C 215.854 181.637 215.704 178.255 215.62 174.614 C 215.744 174.188 215.801 174.019 215.858 173.851 C 235.88 173.831 255.902 173.811 276.393 173.777 C 276.868 177.487 276.873 181.21 276.864 185.405 Z" transform="matrix(1, 0, 0, 1, -5.684341886080802e-14, -5.684341886080802e-14)"/>
  <path fill="#3C3A5F" opacity="1.000000" stroke="none" d="M 62.927 182.559 C 62.502 174.417 62.427 166.018 62.451 157.155 C 62.98 157.515 63.791 158.345 63.782 159.165 C 63.693 166.879 63.464 174.591 62.927 182.559 Z" transform="matrix(1, 0, 0, 1, -5.684341886080802e-14, -5.684341886080802e-14)"/>
  <path fill="#E4E9F8" opacity="1.000000" stroke="none" d="M 424.333 182.736 C 423.447 182.701 423.027 182.653 422.302 182.528 C 421.614 180.222 420.98 178.004 420.895 175.765 C 420.616 168.423 420.693 168.42 413.358 167.334 C 412.487 163.722 410.488 162.582 407.486 162.679 C 405.224 162.751 402.96 162.732 400.697 162.753 C 399.223 162.538 397.749 162.323 395.583 162.382 C 392.579 162.677 390.123 162.222 387.997 162.862 C 386.133 163.422 384.639 165.211 382.981 166.458 C 384.485 168.18 385.687 170.511 387.58 171.447 C 389.309 172.301 391.785 171.646 393.932 171.657 C 393.522 176.399 395.608 179.723 399.797 182.215 C 392.619 182.302 385.386 181.834 378.157 181.897 C 373.903 181.934 372.761 180.226 372.796 176.235 C 372.949 158.77 372.841 141.303 372.881 123.837 C 372.893 118.676 374.67 116.807 379.666 116.796 C 401.623 116.748 423.581 116.828 445.538 116.713 C 450.138 116.689 451.831 119.082 451.846 123.112 C 451.909 140.578 451.94 158.045 451.841 175.51 C 451.808 181.411 450.302 182.675 444.263 182.704 C 437.776 182.735 431.289 182.719 424.333 182.736 M 410.534 145.663 C 403.897 145.397 397.262 145.038 390.623 144.929 C 388.871 144.9 386.847 145.241 385.428 146.156 C 384.286 146.893 383.039 148.976 383.332 150.058 C 383.72 151.49 385.535 153.539 386.786 153.575 C 396.938 153.867 407.106 153.885 417.256 153.572 C 418.424 153.536 420.42 150.932 420.38 149.567 C 420.341 148.232 418.409 146.433 416.903 145.805 C 415.344 145.153 413.299 145.663 410.534 145.663 M 397.385 138.734 C 401.384 138.73 405.489 139.263 409.339 138.503 C 411.377 138.102 412.971 135.452 414.766 133.817 C 413.02 132.459 411.346 130.057 409.515 129.93 C 402.715 129.459 395.863 129.714 389.031 129.741 C 385.906 129.754 382.663 130.874 383.354 134.276 C 383.724 136.098 387.11 137.776 389.456 138.585 C 391.541 139.304 394.07 138.733 397.385 138.734 Z" transform="matrix(1, 0, 0, 1, -5.684341886080802e-14, -5.684341886080802e-14)"/>
  <path fill="#393868" opacity="1.000000" stroke="none" d="M 461.532 121.534 C 464.949 120.485 466.991 122.028 467.211 124.781 C 467.328 126.254 465.787 128.74 464.452 129.201 C 463.102 129.668 459.772 128.414 459.63 127.537 C 459.336 125.724 460.583 123.662 461.532 121.534 Z" transform="matrix(1, 0, 0, 1, -5.684341886080802e-14, -5.684341886080802e-14)"/>
  <path fill="#393868" opacity="1.000000" stroke="none" d="M 459.025 143.295 C 458.529 139.891 460.004 137.908 462.868 137.896 C 464.264 137.891 466.543 139.384 466.847 140.594 C 467.222 142.089 465.959 143.995 465.403 145.723 C 463.307 145.038 461.211 144.354 459.025 143.295 Z" transform="matrix(1, 0, 0, 1, -5.684341886080802e-14, -5.684341886080802e-14)"/>
  <path fill="#AFAEE2" opacity="1.000000" stroke="none" d="M 367.952 110.922 C 367.861 110.755 368.332 110.664 368.572 110.678 C 368.555 110.825 368.299 110.957 367.952 110.922 Z" transform="matrix(1, 0, 0, 1, -5.684341886080802e-14, -5.684341886080802e-14)"/>
  <path fill="#AFAEE2" opacity="1.000000" stroke="none" d="M 369.048 110.615 C 368.996 110.437 369.175 110.162 369.592 109.797 C 369.646 109.978 369.463 110.249 369.048 110.615 Z" transform="matrix(1, 0, 0, 1, -5.684341886080802e-14, -5.684341886080802e-14)"/>
  <path fill="#AFAEE2" opacity="1.000000" stroke="none" d="M 394.115 171.338 C 391.785 171.646 389.309 172.301 387.58 171.447 C 385.687 170.511 384.485 168.18 382.981 166.458 C 384.639 165.211 386.133 163.422 387.997 162.862 C 390.123 162.222 392.579 162.677 395.339 162.605 C 395.29 165.375 394.794 168.197 394.115 171.338 Z" transform="matrix(1, 0, 0, 1, -5.684341886080802e-14, -5.684341886080802e-14)"/>
  <path fill="#AFAEE2" opacity="1.000000" stroke="none" d="M 400.773 163.123 C 402.96 162.732 405.224 162.751 407.486 162.679 C 410.488 162.582 412.487 163.722 413.026 167.262 C 411.288 168.681 409.49 169.72 407.32 170.778 C 406.878 168.232 406.755 165.836 403.211 165.598 C 402.38 165.542 401.634 164.228 400.773 163.123 Z" transform="matrix(1, 0, 0, 1, -5.684341886080802e-14, -5.684341886080802e-14)"/>
  <path fill="#393868" opacity="1.000000" stroke="none" d="M 163.927 388.499 C 164.231 387.004 164.141 385.261 164.9 384.05 C 173.407 370.464 182.046 356.96 190.735 343.109 C 195.57 335.499 200.32 328.214 205.287 320.596 C 206.605 321.727 207.567 322.552 208.668 324.038 C 208.054 325.421 207.3 326.143 206.309 326.629 C 205.484 326.556 204.523 326.551 204.363 326.907 C 202.012 332.145 199.767 337.43 197.258 342.95 C 193.964 350.057 190.907 356.918 187.982 364.209 C 198.18 364.724 208.247 364.827 218.313 364.843 C 218.738 364.844 219.165 364.036 219.513 363.218 C 217.048 356.134 214.66 349.437 212.564 342.742 C 213.248 342.728 213.638 342.712 214.176 342.771 C 214.324 342.847 214.635 342.959 214.701 343.323 C 217.014 349.753 219.21 355.839 221.553 361.868 C 221.989 362.989 222.993 364.725 223.776 364.747 C 231.421 364.964 239.074 364.878 247.754 364.878 C 239.768 356.919 232.716 349.892 226.059 342.833 C 226.978 342.764 227.503 342.728 228.028 342.692 C 228.028 342.692 228.429 342.743 228.624 342.799 C 236.423 350.502 244.028 358.148 252.212 366.377 C 244.966 373.54 237.807 380.616 229.972 387.599 C 228.624 387.141 227.951 386.776 227.489 386.101 C 225.904 380.485 224.292 375.105 222.174 369.931 C 221.679 368.721 219.488 367.524 218.05 367.491 C 208.409 367.269 198.76 367.291 189.116 367.424 C 187.425 367.447 185.295 367.884 184.139 368.959 C 178.789 373.936 173.689 379.185 168.576 384.411 C 168.165 384.832 168.337 385.822 167.977 386.674 C 167.433 387.282 167.149 387.764 166.502 388.313 C 165.402 388.42 164.665 388.46 163.927 388.499 M 190.723 347.502 C 184.996 356.465 179.27 365.428 173.543 374.391 C 184.358 368.655 188.014 358.172 192.627 347.531 C 192.642 346.979 192.658 346.427 192.674 345.875 C 192.189 346.264 191.705 346.653 190.723 347.502 M 232.044 383.444 C 237.246 378.667 242.447 373.89 247.648 369.113 C 247.273 368.602 246.898 368.092 246.523 367.582 C 239.068 367.582 231.613 367.582 223.689 367.582 C 225.722 373.108 227.626 378.367 229.652 383.579 C 229.774 383.892 230.879 383.822 232.044 383.444 M 193.705 344.267 C 193.51 344.188 193.316 344.109 193.121 344.03 C 193.179 344.246 193.236 344.462 193.705 344.267 M 173.646 376.179 C 173.429 376.156 173.211 376.133 172.994 376.111 C 173.091 376.239 173.187 376.367 173.646 376.179 Z" transform="matrix(1, 0, 0, 1, -5.684341886080802e-14, -5.684341886080802e-14)"/>
  <path fill="#3C3A5F" opacity="1.000000" stroke="none" d="M 227.868 342.394 C 227.503 342.728 226.978 342.764 225.883 342.787 C 225.313 342.774 224.95 342.756 224.823 342.44 C 219.81 337.507 214.923 332.89 210.037 328.273 C 209.801 328.575 209.565 328.877 209.329 329.179 C 210.895 333.685 212.462 338.19 214.028 342.696 C 213.638 342.712 213.248 342.728 212.46 342.701 C 212.062 342.658 211.866 342.766 211.842 342.394 C 210.061 336.97 208.303 331.918 206.546 326.866 C 207.3 326.143 208.054 325.421 208.802 324.34 C 215.1 330.019 221.404 336.057 227.868 342.394 Z" transform="matrix(1, 0, 0, 1, -5.684341886080802e-14, -5.684341886080802e-14)"/>
  <path fill="#AEADE5" opacity="1.000000" stroke="none" d="M 221.474 221.463 C 221.605 226.589 222.95 232.077 221.553 236.746 C 219.915 242.222 216.03 247.071 212.858 252.025 C 210.821 255.207 208.314 258.089 205.701 261.521 C 204.915 260.807 203.858 260.1 203.13 259.143 C 199.926 254.933 197.136 250.361 193.593 246.469 C 189.151 241.588 188.342 236.009 188.772 229.872 C 188.945 227.396 188.902 224.904 189.474 221.952 C 200.486 224.225 210.981 223.935 221.474 221.463 Z" transform="matrix(1, 0, 0, 1, -5.684341886080802e-14, -5.684341886080802e-14)"/>
  <path fill="#ACCDEC" opacity="1.000000" stroke="none" d="M 213.754 201.647 C 214.483 203.189 215.517 204.666 215.857 206.289 C 216.22 208.019 215.925 209.888 215.901 212.136 C 215.962 213.648 216.039 214.72 216.124 216.459 C 214.985 218.149 213.98 219.791 212.669 220.091 C 205.7 221.682 198.693 222.706 192.917 216.811 C 193.229 215.634 193.542 214.457 193.842 212.907 C 193.855 212.139 193.88 211.744 193.892 211.051 C 194.393 207.799 194.906 204.845 196.192 201.759 C 202.561 201.634 208.157 201.641 213.754 201.647 Z" transform="matrix(1, 0, 0, 1, -5.684341886080802e-14, -5.684341886080802e-14)"/>
  <path fill="#5C5BA3" opacity="1.000000" stroke="none" d="M 192.585 216.89 C 198.693 222.706 205.7 221.682 212.669 220.091 C 213.98 219.791 214.985 218.149 216.1 216.788 C 218.357 217.344 221.952 216.55 221.567 221.12 C 210.981 223.935 200.486 224.225 189.596 221.48 C 187.483 218.123 190.393 217.901 192.585 216.89 Z" transform="matrix(1, 0, 0, 1, -5.684341886080802e-14, -5.684341886080802e-14)"/>
  <path fill="#3C3A5F" opacity="1.000000" stroke="none" d="M 166.866 388.246 C 167.149 387.764 167.433 387.282 168.412 386.606 C 188.497 386.411 207.888 386.411 227.278 386.411 C 227.951 386.776 228.624 387.141 229.644 387.669 C 229.991 387.833 229.865 388.171 229.363 388.345 C 208.196 388.428 187.531 388.337 166.866 388.246 Z" transform="matrix(1, 0, 0, 1, -5.684341886080802e-14, -5.684341886080802e-14)"/>
  <path fill="#ACCDEC" opacity="1.000000" stroke="none" d="M 166.502 388.313 C 187.531 388.337 208.196 388.428 229.324 388.521 C 228.78 388.929 227.774 389.687 226.766 389.69 C 206.605 389.755 186.445 389.737 166.284 389.706 C 165.655 389.705 165.025 389.377 164.162 388.85 C 164.665 388.46 165.402 388.42 166.502 388.313 Z" transform="matrix(1, 0, 0, 1, -5.684341886080802e-14, -5.684341886080802e-14)"/>
  <path fill="#ACCDEC" opacity="1.000000" stroke="none" d="M 194.878 174.761 C 194.878 174.761 194.862 174.328 194.833 174.114 C 195.156 171.864 195.592 169.838 195.836 167.789 C 196.03 166.159 195.42 164.166 196.155 162.913 C 199.039 157.998 204.063 159.884 208.26 159.933 C 211.389 159.97 214.392 161.365 214.795 165.287 C 215.062 167.886 215.27 170.491 215.681 173.472 C 215.801 174.019 215.744 174.188 215.189 174.469 C 208.087 174.642 201.482 174.701 194.878 174.761 Z" transform="matrix(1, 0, 0, 1, -5.684341886080802e-14, -5.684341886080802e-14)"/>
  <path fill="#393868" opacity="1.000000" stroke="none" d="M 194.868 175.208 C 201.482 174.701 208.087 174.642 215.122 174.727 C 215.704 178.255 215.854 181.637 216.054 185.481 C 216.26 190.27 216.417 194.598 216.615 199.338 C 215.774 200.183 214.892 200.614 213.882 201.347 C 208.157 201.641 202.561 201.634 196.524 201.512 C 195.482 201.18 194.88 200.964 193.946 200.744 C 193.917 196.021 194.22 191.304 194.459 186.101 C 194.55 182.296 194.704 178.976 194.868 175.208 Z" transform="matrix(1, 0, 0, 1, -5.684341886080802e-14, -5.684341886080802e-14)"/>
  <path fill="#AEADE5" opacity="1.000000" stroke="none" d="M 411 145.664 C 413.299 145.663 415.344 145.153 416.903 145.805 C 418.409 146.433 420.341 148.232 420.38 149.567 C 420.42 150.932 418.424 153.536 417.256 153.572 C 407.106 153.885 396.938 153.867 386.786 153.575 C 385.535 153.539 383.72 151.49 383.332 150.058 C 383.039 148.976 384.286 146.893 385.428 146.156 C 386.847 145.241 388.871 144.9 390.623 144.929 C 397.262 145.038 403.897 145.397 411 145.664 Z" transform="matrix(1, 0, 0, 1, -5.684341886080802e-14, -5.684341886080802e-14)"/>
  <path fill="#AFAEE2" opacity="1.000000" stroke="none" d="M 396.894 138.732 C 394.07 138.733 391.541 139.304 389.456 138.585 C 387.11 137.776 383.724 136.098 383.354 134.276 C 382.663 130.874 385.906 129.754 389.031 129.741 C 395.863 129.714 402.715 129.459 409.515 129.93 C 411.346 130.057 413.02 132.459 414.766 133.817 C 412.971 135.452 411.377 138.102 409.339 138.503 C 405.489 139.263 401.384 138.73 396.894 138.732 Z" transform="matrix(1, 0, 0, 1, -5.684341886080802e-14, -5.684341886080802e-14)"/>
  <path fill="#A9A9E4" opacity="1.000000" stroke="none" d="M 227.489 386.101 C 207.888 386.411 188.497 386.411 168.672 386.48 C 168.337 385.822 168.165 384.832 168.576 384.411 C 173.689 379.185 178.789 373.936 184.139 368.959 C 185.295 367.884 187.425 367.447 189.116 367.424 C 198.76 367.291 208.409 367.269 218.05 367.491 C 219.488 367.524 221.679 368.721 222.174 369.931 C 224.292 375.105 225.904 380.485 227.489 386.101 Z" transform="matrix(1, 0, 0, 1, -5.684341886080802e-14, -5.684341886080802e-14)"/>
  <path fill="#ADADE8" opacity="1.000000" stroke="none" d="M 212.167 342.699 C 214.66 349.437 217.048 356.134 218.983 363.252 C 208.303 363.709 198.077 363.744 187.851 363.78 C 190.907 356.918 193.964 350.057 197.746 343.001 C 202.936 342.793 207.401 342.78 211.866 342.766 C 211.866 342.766 212.062 342.658 212.167 342.699 Z" transform="matrix(1, 0, 0, 1, -5.684341886080802e-14, -5.684341886080802e-14)"/>
  <path fill="#ADADE8" opacity="1.000000" stroke="none" d="M 224.95 342.756 C 224.95 342.756 225.313 342.774 225.489 342.82 C 232.716 349.892 239.768 356.919 247.754 364.878 C 239.074 364.878 231.421 364.964 223.776 364.747 C 222.993 364.725 221.989 362.989 221.553 361.868 C 219.21 355.839 217.014 349.753 215.17 343.276 C 218.699 342.829 221.825 342.793 224.95 342.756 Z" transform="matrix(1, 0, 0, 1, -5.684341886080802e-14, -5.684341886080802e-14)"/>
  <path fill="#A9A9E4" opacity="1.000000" stroke="none" d="M 231.785 383.687 C 230.879 383.822 229.774 383.892 229.652 383.579 C 227.626 378.367 225.722 373.108 223.689 367.582 C 231.613 367.582 239.068 367.582 246.523 367.582 C 246.898 368.092 247.273 368.602 247.648 369.113 C 242.447 373.89 237.246 378.667 231.785 383.687 Z" transform="matrix(1, 0, 0, 1, -5.684341886080802e-14, -5.684341886080802e-14)"/>
  <path fill="#A9A9E4" opacity="1.000000" stroke="none" d="M 192.141 348.005 C 188.014 358.172 184.358 368.655 173.543 374.391 C 179.27 365.428 184.996 356.465 191.189 347.525 C 191.816 347.7 191.979 347.853 192.141 348.005 Z" transform="matrix(1, 0, 0, 1, -5.684341886080802e-14, -5.684341886080802e-14)"/>
  <path fill="#ACCDEC" opacity="1.000000" stroke="none" d="M 187.982 364.209 C 198.077 363.744 208.303 363.709 219.06 363.639 C 219.165 364.036 218.738 364.844 218.313 364.843 C 208.247 364.827 198.18 364.724 187.982 364.209 Z" transform="matrix(1, 0, 0, 1, -5.684341886080802e-14, -5.684341886080802e-14)"/>
  <path fill="#A9A9E4" opacity="1.000000" stroke="none" d="M 191.437 347.295 C 191.705 346.653 192.189 346.264 192.674 345.875 C 192.658 346.427 192.642 346.979 192.384 347.768 C 191.979 347.853 191.816 347.7 191.437 347.295 Z" transform="matrix(1, 0, 0, 1, -5.684341886080802e-14, -5.684341886080802e-14)"/>
  <path fill="#A9A9E4" opacity="1.000000" stroke="none" d="M 193.499 344.473 C 193.236 344.462 193.179 344.246 193.121 344.03 C 193.316 344.109 193.51 344.188 193.499 344.473 Z" transform="matrix(1, 0, 0, 1, -5.684341886080802e-14, -5.684341886080802e-14)"/>
  <path fill="#A9A9E4" opacity="1.000000" stroke="none" d="M 173.465 376.337 C 173.187 376.367 173.091 376.239 172.994 376.111 C 173.211 376.133 173.429 376.156 173.465 376.337 Z" transform="matrix(1, 0, 0, 1, -5.684341886080802e-14, -5.684341886080802e-14)"/>
</svg>