<?xml version="1.0" encoding="utf-8"?>
<svg viewBox="72.871 92.342 441.0343 442.037" xmlns="http://www.w3.org/2000/svg">
  <defs>
    <linearGradient gradientUnits="userSpaceOnUse" x1="293.388" y1="92.342" x2="293.388" y2="534.379" id="gradient-0">
      <stop offset="0" style="stop-color: rgb(22.353% 21.961% 40.784%)"/>
      <stop offset="1" style="stop-color: rgb(12.851% 13.4% 31.03%)"/>
    </linearGradient>
  </defs>
  <path d="M 364.445 316.389 L 424.341 256.493 C 434.031 246.801 446.267 239.389 459.722 235.06 C 470.582 231.569 480.622 225.43 488.762 217.302 C 502.785 203.272 510.335 184.619 510.02 164.778 C 509.706 144.942 501.551 126.526 487.06 112.922 L 478.332 104.729 L 462.469 155.584 C 458.968 166.793 446.994 173.072 435.783 169.58 C 426.832 166.785 420.817 158.611 420.817 149.239 C 420.817 147.088 421.143 144.954 421.787 142.893 L 437.562 92.342 L 425.586 94.287 C 412.136 96.471 399.656 102.342 389.493 111.269 C 371.637 126.98 362.55 150.436 365.183 174.012 C 368.037 199.603 358.918 225.043 340.164 243.806 L 316.008 267.954 L 272.138 224.084 L 285.632 210.59 L 259.081 184.039 C 273.332 163.047 305.125 134.446 334.626 121.352 L 347.977 115.426 L 335.381 108.03 C 298.653 86.462 251.603 92.8 220.96 123.444 C 218.439 125.965 142.877 201.527 142.877 201.527 L 137.627 206.777 L 142.824 212.08 C 147.385 216.732 145.748 226.152 139.249 232.651 C 132.75 239.149 123.329 240.786 118.679 236.226 L 113.376 231.029 L 72.871 271.533 L 148.779 347.442 L 189.262 306.959 L 184.11 301.657 C 179.585 297.001 181.235 287.594 187.714 281.115 C 194.192 274.636 203.598 272.986 208.255 277.511 L 213.557 282.664 L 226.247 269.974 L 270.117 313.844 L 213.732 370.23 C 204.051 379.919 191.82 387.33 178.362 391.661 C 167.34 395.204 157.57 401.182 149.324 409.428 C 135.3 423.453 127.748 442.1 128.06 461.935 C 128.373 481.772 136.528 500.191 151.023 513.799 L 159.751 521.992 L 175.619 471.14 C 177.309 465.708 181.016 461.262 186.057 458.619 C 191.097 455.976 196.862 455.454 202.297 457.151 C 211.251 459.94 217.268 468.106 217.268 477.47 C 217.268 479.599 216.938 481.74 216.288 483.828 L 200.528 534.379 L 212.502 532.433 C 225.956 530.246 238.435 524.375 248.593 515.451 C 266.449 499.74 275.536 476.284 272.903 452.709 C 270.049 427.117 279.168 401.677 297.924 382.914 L 318.557 362.281 L 458.526 502.25 C 464.853 508.577 473.161 511.739 481.471 511.739 C 489.78 511.738 498.091 508.575 504.417 502.25 C 517.068 489.598 517.068 469.012 504.417 456.36 L 364.445 316.389 Z M 350.772 254.411 C 372.767 232.405 383.454 202.494 380.091 172.347 C 377.999 153.632 385.218 135.009 399.396 122.534 C 404.193 118.321 409.648 114.967 415.533 112.578 L 407.47 138.422 C 406.373 141.929 405.818 145.568 405.818 149.239 C 405.818 165.209 416.064 179.137 431.319 183.9 C 450.422 189.851 470.824 179.154 476.789 160.053 L 485.07 133.504 C 491.371 142.724 494.841 153.573 495.023 165.016 C 495.274 180.762 489.283 195.565 478.159 206.693 C 471.608 213.235 463.861 217.974 455.131 220.78 C 439.417 225.837 425.103 234.519 413.735 245.886 L 353.839 305.782 L 326.617 278.56 L 350.772 254.411 Z M 231.566 134.051 C 253.802 111.814 286.243 104.739 314.52 114.78 C 287.678 130.126 262.15 154.041 248.348 173.24 L 220.362 145.254 C 226.689 138.928 230.998 134.619 231.566 134.051 Z M 209.756 155.861 L 264.42 210.589 L 214.569 260.439 L 159.873 205.743 C 170.639 194.978 192.87 172.747 209.756 155.861 Z M 94.084 271.533 L 113.429 252.188 L 168.124 306.884 L 148.779 326.229 L 94.084 271.533 Z M 177.108 270.509 C 172.646 274.97 169.571 280.153 167.915 285.462 L 134.906 252.452 C 140.211 250.795 145.391 247.722 149.856 243.257 C 154.797 238.316 158.027 232.5 159.522 226.607 L 193.763 260.848 C 187.865 262.342 182.045 265.571 177.108 270.509 Z M 287.313 372.307 C 265.317 394.313 254.63 424.224 257.993 454.372 C 260.085 473.086 252.866 491.709 238.687 504.184 C 233.891 508.397 228.436 511.752 222.548 514.141 L 230.608 488.289 C 231.709 484.753 232.267 481.112 232.267 477.469 C 232.267 461.502 222.015 447.581 206.762 442.83 C 197.505 439.94 187.678 440.83 179.09 445.333 C 170.498 449.838 164.18 457.419 161.298 466.675 L 153.016 493.216 C 146.711 483.992 143.239 473.14 143.058 461.696 C 142.81 445.957 148.802 431.16 159.931 420.032 C 166.475 413.487 174.221 408.745 182.954 405.938 C 198.673 400.879 212.985 392.197 224.341 380.832 L 280.724 324.449 L 307.947 351.672 L 287.313 372.307 Z M 493.809 491.642 C 487.005 498.446 475.933 498.446 469.131 491.642 L 236.855 259.366 L 261.532 234.689 L 493.808 466.964 C 500.611 473.769 500.611 484.839 493.809 491.642 Z" style="fill-rule: nonzero; paint-order: fill; stroke: rgb(57, 56, 104); stroke-miterlimit: 4.66; fill: url('#gradient-0'); stroke-width: 5px;"/>
</svg>