<?xml version="1.0" encoding="utf-8"?>
<svg viewBox="-20.9391 -50.467 509.0985 592" xmlns="http://www.w3.org/2000/svg">
  <path opacity="1.000000" stroke="none" d="M 164.598 541.533 C 164.566 534.071 164.784 526.587 165.538 519.157 C 165.876 515.827 164.735 513.784 162.801 511.194 C 157.716 504.384 151.3 502.255 143.25 503.711 C 141.955 503.946 140.573 503.931 139.259 503.781 C 135.403 503.342 130.559 505.797 127.861 502.415 C 124.141 497.751 122.511 491.737 121.084 485.896 C 120.566 483.776 122.563 482.721 123.907 481.532 C 128.522 477.446 133.129 473.348 137.812 469.34 C 139.872 467.577 139.896 465.329 140.519 462.892 C 143.406 451.581 135.524 446.361 128.806 440.309 C 120.621 432.935 120.214 434.802 124.93 423.2 C 128.652 414.044 129.139 413.761 138.851 414.396 C 140.509 414.505 142.186 414.67 143.799 415.044 C 152.95 417.164 159.868 413.834 165.429 406.619 C 166.808 404.829 166.956 403.038 166.928 401.03 C 166.839 394.698 166.934 388.357 166.615 382.037 C 166.463 379.032 167.534 377.388 170.205 376.313 C 174.188 374.711 178.101 372.933 181.87 371.305 C 182.204 369.024 180.679 367.909 179.992 366.457 C 175.037 355.993 178.609 346.703 189.383 342.556 C 195.505 340.2 201.931 339.494 208.468 339.166 C 222.844 338.444 237.014 341.307 251.344 341.342 C 260.356 341.365 269.324 341.216 278.169 339.259 C 280.574 338.727 283.051 338.377 285.151 336.227 C 283.049 334.052 280.46 333.961 277.858 333.803 C 268.046 333.207 258.206 333.966 248.393 332.936 C 236.331 331.669 229.936 326.142 227.753 314.258 C 227.089 310.642 225.783 308.068 222.348 306.004 C 216.093 302.245 213.032 296.169 212.865 288.836 C 212.729 282.839 212.482 276.814 212.904 270.846 C 213.275 265.607 210.79 264.008 206.232 264.002 C 196.903 263.99 187.564 263.715 178.248 264.065 C 173.237 264.253 171.65 262.747 171.713 257.622 C 171.977 236.294 171.824 214.961 171.808 193.63 C 171.802 186.661 171.577 186.481 164.409 186.481 C 110.582 186.482 56.756 186.483 2.929 186.453 C 0.104 186.452 -2.741 186.326 -5.544 185.987 C -14.371 184.92 -20.904 177.681 -20.939 169.095 C -20.974 160.711 -14.705 153.468 -6.115 152.18 C -3.328 151.762 -0.479 151.598 2.342 151.596 C 42.17 151.57 81.998 151.59 121.826 151.603 C 136.312 151.607 150.799 151.491 165.282 151.71 C 170.191 151.785 171.966 150.219 171.909 145.099 C 171.665 123.438 171.912 101.771 171.731 80.109 C 171.693 75.655 172.886 74.05 177.592 74.073 C 214.92 74.25 252.249 74.248 289.577 74.097 C 294.137 74.079 295.571 75.414 295.527 80.023 C 295.32 101.686 295.589 123.352 295.347 145.014 C 295.291 149.945 296.537 151.785 301.711 151.698 C 322.845 151.341 343.98 151.923 365.123 151.719 C 393.744 151.442 422.372 151.942 450.997 152.038 C 456.99 152.059 462.993 151.503 468.977 151.688 C 478.539 151.985 484.719 156.26 487.273 163.773 C 490.476 173.196 484.69 183.588 474.884 185.731 C 472.306 186.294 469.593 186.429 466.941 186.431 C 412.448 186.482 357.956 186.493 303.463 186.488 C 295.504 186.487 295.468 186.479 295.47 194.534 C 295.475 215.698 295.351 236.864 295.553 258.026 C 295.597 262.642 294.102 264.122 289.545 263.995 C 279.72 263.722 269.881 264.044 260.052 263.86 C 255.996 263.784 254.28 265.19 254.413 269.349 C 254.609 275.509 254.39 281.68 254.448 287.845 C 254.528 296.498 250.597 302.796 243.31 307.167 C 238.195 310.235 238.309 316.598 243.585 319.644 C 246.119 321.106 248.942 321.305 251.798 321.4 C 263.267 321.781 274.796 320.983 286.174 323.19 C 288.815 323.703 291.347 324.482 293.718 325.728 C 302.432 330.305 302.954 339.269 294.822 344.794 C 288.284 349.237 280.718 350.677 273.133 351.758 C 258.181 353.888 243.228 352.785 228.275 351.395 C 217.987 350.438 207.645 349.817 197.43 351.987 C 194.15 352.684 189.893 353.119 189.618 357.636 C 189.325 362.429 192.818 364.718 196.953 365.837 C 205.067 368.034 213.431 368.048 221.744 368.146 C 227.435 368.213 233.021 368.801 238.61 369.813 C 245.146 370.997 250.017 375.042 255.061 378.86 C 256.667 380.075 256.488 381.796 256.408 383.423 C 256.102 389.57 255.816 395.721 255.294 401.851 C 255.015 405.135 256.491 407.188 258.436 409.729 C 263.484 416.322 269.471 417.288 277.499 416.808 C 294.677 415.78 291.688 412.777 298.699 431.063 C 299.979 434.401 299.398 436.654 296.673 438.895 C 292.172 442.596 287.99 446.686 283.484 450.379 C 281.207 452.246 280.66 454.365 280.244 457.197 C 278.944 466.053 281.957 472.682 289.22 477.619 C 289.766 477.99 290.247 478.475 290.696 478.965 C 293.464 481.98 298.833 483.957 298.621 488.047 C 298.307 494.112 295.031 499.736 291.784 505.024 C 290.849 506.545 289.341 506.533 287.793 506.407 C 281.987 505.933 276.165 505.611 270.376 504.978 C 266.448 504.548 263.822 506.115 260.621 508.432 C 252.812 514.087 252.659 521.531 253.809 529.662 C 254.325 533.311 254.467 536.955 254.221 541.078 C 245.109 541.533 236.088 541.533 226.516 541.199 C 224.694 539.138 223.594 537.244 222.111 535.725 C 219.978 533.539 218.604 530.319 214.983 529.959 C 206.611 529.127 198.747 529.578 193.885 538.015 C 193.148 539.293 192.057 540.366 191.13 541.533 C 182.442 541.533 173.755 541.533 164.598 541.533 M 255.504 453.762 C 250.555 429.373 233.099 414.349 209.612 414.703 C 190.896 414.985 176.922 423.685 168.926 440.516 C 160.852 457.51 162.807 474.277 174.594 488.862 C 186.501 503.595 202.446 508.757 221.109 504.61 C 239.856 500.444 258.431 481.714 255.504 453.762 M 220.539 388.809 C 222.685 386.216 225.691 384.272 227.187 380.116 C 215.512 379.619 204.265 379.971 192.946 377.073 C 199.31 389.103 208.684 393.187 220.539 388.809 Z" style="fill: rgb(57, 56, 104);"/>
  <path opacity="1.000000" stroke="none" d="M 389.672 -50.467 C 390.825 -41.804 390.776 -33.151 389.116 -24.601 C 386.726 -12.289 381.285 -1.748 370.228 5.61 C 391.532 8.526 412.156 -3.422 417.25 -21.198 C 419.02 -27.373 419.285 -33.705 418.885 -40.015 C 418.507 -45.982 422.816 -45.088 426.204 -45.547 C 430.558 -46.137 430.419 -43.076 430.497 -40.092 C 430.7 -32.233 430.372 -24.437 427.982 -16.875 C 421.708 2.975 406.631 12.086 387.436 15.697 C 373.155 18.384 358.692 18.417 344.16 18.149 C 323.391 17.766 302.52 16.157 281.913 20.629 C 258.822 25.641 247.274 39.303 246.364 62.846 C 246.071 70.438 242.14 73.214 234.435 71.439 C 232.379 70.965 231.769 69.779 231.745 67.901 C 231.331 34.692 244.503 9.241 284.687 5.189 C 302.286 3.415 319.979 4.679 337.586 3.27 C 344.094 2.749 350.492 1.73 356.616 -0.486 C 370.483 -5.505 378.245 -17.341 378.776 -34.055 C 378.939 -39.214 378.903 -44.379 379.044 -50.004 C 382.491 -50.467 385.852 -50.467 389.672 -50.467 Z" style="fill: rgb(60, 58, 95);"/>
  <path opacity="1.000000" stroke="none" d="M 357.37 397.206 C 365.766 397.202 365.746 397.209 368.325 404.557 C 369.852 408.908 371.455 413.232 373.218 418.103 C 378.785 415.533 384.04 413.475 388.917 410.742 C 393.012 408.448 395.386 410.524 398.017 413.005 C 400.8 415.63 402.285 418.302 400.08 422.188 C 398.033 425.797 396.584 429.74 394.674 433.434 C 393.12 436.439 393.351 438.252 396.995 439.306 C 401.141 440.506 405.077 442.441 409.232 443.597 C 413.595 444.811 413.538 447.941 413.501 451.395 C 413.465 454.772 413.848 458.015 409.351 459.237 C 405.03 460.41 400.922 462.342 396.647 463.713 C 393.361 464.768 393.045 466.584 394.463 469.386 C 396.415 473.245 398.017 477.294 400.141 481.052 C 402.283 484.841 400.632 487.237 397.943 489.679 C 395.361 492.025 393.335 494.792 389.026 492.307 C 384.177 489.511 378.901 487.456 373.478 484.923 C 370.511 490.35 368.981 495.793 367.344 501.126 C 366.001 505.5 363.051 505.859 359.292 505.899 C 355.43 505.939 352.53 505.322 351.338 500.969 C 350.153 496.647 348.374 492.491 346.966 488.225 C 346.071 485.512 344.623 484.956 342.077 486.286 C 338.538 488.134 334.716 489.483 331.319 491.546 C 326.979 494.18 324.026 493.249 320.511 489.739 C 317.095 486.327 317.127 483.574 319.283 479.711 C 321.703 475.375 323.559 470.724 325.833 465.84 C 320.975 462.632 315.612 461.395 310.503 459.715 C 306.38 458.359 304.746 456.06 304.77 451.694 C 304.795 447.293 305.911 444.43 310.541 443.229 C 314.39 442.231 318.018 440.404 321.843 439.284 C 325.381 438.249 325.817 436.456 324.239 433.404 C 322.176 429.414 320.601 425.151 318.32 421.299 C 316.033 417.437 318.496 415.448 320.715 413.214 C 323.044 410.87 325.15 408.133 329.21 410.35 C 333.001 412.421 337.135 413.868 340.9 415.98 C 344.639 418.079 346.315 416.661 347.488 413.14 C 348.856 409.037 350.499 405.026 351.854 400.919 C 352.695 398.371 354.104 396.911 357.37 397.206 M 352.338 443.14 C 348.801 446.564 347.437 450.606 349.147 455.349 C 350.479 459.04 353.112 461.443 357.03 462.195 C 362.179 463.182 367.011 460.885 369.197 456.516 C 371.329 452.255 370.478 446.953 367.136 443.662 C 363.529 440.109 358.399 439.749 352.338 443.14 Z" style="fill: rgb(92, 91, 163);"/>
  <path opacity="1.000000" stroke="none" d="M 322.145 104.095 C 319.338 114.373 313.417 119.664 304.614 120.342 C 301.23 120.603 299.741 119.487 299.798 115.914 C 299.945 106.777 299.951 97.634 299.807 88.496 C 299.748 84.812 300.992 83.461 304.799 83.83 C 315.483 84.864 322.146 92.309 322.145 104.095 Z" style="fill: rgb(137, 137, 183);"/>
  <path opacity="1.000000" stroke="none" d="M 153.259 118.747 C 144.333 113.403 140.874 106.289 142.827 97.885 C 144.607 90.228 151.102 84.836 159.115 83.929 C 162.989 83.491 164.612 84.581 164.516 88.679 C 164.316 97.158 164.472 105.644 164.448 114.128 C 164.431 120.348 163.547 121.084 157.443 119.964 C 156.145 119.726 154.89 119.256 153.259 118.747 Z" style="fill: rgb(137, 137, 183);"/>
  <path opacity="1.000000" stroke="none" d="M 223.072 440.398 C 233.488 448.384 236.615 460.06 231.422 470.588 C 226.488 480.587 215.446 485.755 204.725 483.083 C 190.93 479.645 183.401 465.515 188.129 451.935 C 192.462 439.488 207.236 433.222 219.671 438.578 C 220.735 439.036 221.73 439.657 223.072 440.398 Z" style="fill: rgb(57, 56, 104);"/>
</svg>